<svg width="20" height="20" viewBox="0 0 20 20" fill="none" xmlns="http://www.w3.org/2000/svg">
<path d="M0.483383 8.50244C0.33013 8.65569 0.208565 8.83764 0.125625 9.03787C0.0426857 9.23811 -1.50411e-07 9.45272 -1.4428e-07 9.66945C-1.3815e-07 9.88618 0.0426858 10.1008 0.125626 10.301C0.208565 10.5013 0.33013 10.6832 0.483383 10.8364C0.636636 10.9897 0.81858 11.1113 1.01881 11.1942C1.21905 11.2771 1.43366 11.3198 1.65039 11.3198C1.86712 11.3198 2.08173 11.2771 2.28197 11.1942C2.4822 11.1113 2.66413 10.9897 2.81738 10.8364L9.68538 3.96844L16.5534 10.8364C16.7846 11.0661 17.0784 11.2224 17.398 11.2859C17.7177 11.3493 18.0489 11.3171 18.3503 11.1931C18.6517 11.0692 18.9098 10.859 19.0923 10.5891C19.2749 10.3191 19.3737 10.0013 19.3764 9.67544C19.3771 9.45899 19.3342 9.24462 19.2502 9.04513C19.1661 8.84565 19.0428 8.66516 18.8874 8.51445L10.8584 0.485442C10.7055 0.331545 10.5237 0.209413 10.3234 0.126067C10.1231 0.0427218 9.90832 -0.000183972 9.69139 -0.000183953C9.47446 -0.000183934 9.25965 0.0427219 9.05937 0.126067C8.85909 0.209413 8.67727 0.331545 8.52438 0.485442L0.483383 8.50244Z" fill="white"/>
<g opacity="0.5">
<path d="M0.483871 17.146C0.330619 17.2992 0.209053 17.4812 0.126114 17.6814C0.043174 17.8817 0.000488131 18.0963 0.000488137 18.313C0.000488143 18.5297 0.0431741 18.7443 0.126114 18.9446C0.209054 19.1448 0.330619 19.3267 0.483871 19.48C0.637124 19.6332 0.819068 19.7548 1.0193 19.8378C1.21954 19.9207 1.43415 19.9634 1.65088 19.9634C1.86761 19.9634 2.08222 19.9207 2.28246 19.8378C2.48269 19.7548 2.66462 19.6332 2.81787 19.48L9.68587 12.612L16.5539 19.48C16.7851 19.7097 17.0789 19.866 17.3985 19.9294C17.7182 19.9929 18.0494 19.9606 18.3508 19.8367C18.6522 19.7127 18.9103 19.5026 19.0928 19.2326C19.2753 18.9627 19.3741 18.6449 19.3769 18.319C19.3776 18.1025 19.3347 17.8882 19.2506 17.6887C19.1666 17.4892 19.0432 17.3087 18.8879 17.158L10.8589 9.129C10.706 8.9751 10.5242 8.85297 10.3239 8.76962C10.1236 8.68628 9.90881 8.64337 9.69188 8.64337C9.47495 8.64337 9.26014 8.68628 9.05986 8.76962C8.85958 8.85297 8.67776 8.9751 8.52487 9.129L0.483871 17.146Z" fill="white"/>
</g>
</svg>
