<svg width="20" height="20" viewBox="0 0 20 20" fill="none" xmlns="http://www.w3.org/2000/svg">
<path d="M8.50293 18.8926C8.65618 19.0458 8.83813 19.1674 9.03836 19.2504C9.23859 19.3333 9.45321 19.376 9.66994 19.376C9.88667 19.376 10.1013 19.3333 10.3015 19.2504C10.5017 19.1674 10.6837 19.0458 10.8369 18.8926C10.9902 18.7393 11.1117 18.5574 11.1947 18.3572C11.2776 18.1569 11.3203 17.9423 11.3203 17.7256C11.3203 17.5089 11.2776 17.2942 11.1947 17.094C11.1117 16.8938 10.9902 16.7118 10.8369 16.5586L3.96893 9.6906L10.8369 2.82259C11.0666 2.59139 11.2229 2.29757 11.2864 1.97794C11.3498 1.6583 11.3176 1.32705 11.1936 1.02567C11.0697 0.724283 10.8595 0.466166 10.5896 0.283646C10.3196 0.101126 10.0018 0.00231737 9.67593 -0.000412059C9.45948 -0.00113495 9.24511 0.0418033 9.04562 0.125824C8.84614 0.209844 8.66565 0.333219 8.51494 0.488586L0.485932 8.51759C0.332035 8.67048 0.209902 8.8523 0.126557 9.05258C0.0432114 9.25286 0.000305609 9.46765 0.000305599 9.68459C0.00030559 9.90152 0.0432114 10.1163 0.126557 10.3166C0.209902 10.5169 0.332034 10.6987 0.485932 10.8516L8.50293 18.8926Z" fill="white"/>
<g opacity="0.5">
<path d="M17.1455 18.8926C17.2988 19.0458 17.4807 19.1674 17.6809 19.2504C17.8812 19.3333 18.0958 19.376 18.3125 19.376C18.5292 19.376 18.7439 19.3333 18.9441 19.2504C19.1443 19.1674 19.3263 19.0458 19.4795 18.8926C19.6328 18.7393 19.7543 18.5574 19.8373 18.3572C19.9202 18.1569 19.9629 17.9423 19.9629 17.7256C19.9629 17.5089 19.9202 17.2942 19.8373 17.094C19.7543 16.8938 19.6328 16.7118 19.4795 16.5586L12.6115 9.6906L19.4795 2.82259C19.7092 2.59139 19.8655 2.29757 19.929 1.97794C19.9924 1.6583 19.9601 1.32705 19.8362 1.02567C19.7122 0.724283 19.5021 0.466166 19.2321 0.283646C18.9622 0.101126 18.6444 0.00231737 18.3185 -0.000412059C18.1021 -0.00113495 17.8877 0.0418033 17.6882 0.125824C17.4887 0.209844 17.3082 0.333219 17.1575 0.488586L9.12851 8.51759C8.97461 8.67048 8.85248 8.8523 8.76913 9.05258C8.68579 9.25286 8.64288 9.46765 8.64288 9.68459C8.64288 9.90152 8.68579 10.1163 8.76913 10.3166C8.85248 10.5169 8.97461 10.6987 9.12851 10.8516L17.1455 18.8926Z" fill="white"/>
</g>
</svg>
