<svg width="38" height="25" viewBox="0 0 38 25" fill="none" xmlns="http://www.w3.org/2000/svg">
<path d="M23.6593 10.0242C24.4684 16.0146 22.0355 25 12.0696 25C5.40147 25 0 19.4021 0 12.5C0 5.59789 5.40147 0 12.0696 0C15.1944 0 18.0458 1.235 20.1886 3.25485C17.6608 5.72484 17.7445 5.86912 16.7513 6.89636C15.5125 5.8345 14.1565 5.07272 12.064 5.07272C8.10222 5.07272 5.01646 8.39682 5.01646 12.4942C5.01646 16.5917 8.10222 19.9157 12.064 19.9157C16.0259 19.9157 17.5659 18.1671 18.5871 14.9585C16.701 14.9585 12.064 14.9585 12.064 14.9585V10.0069H23.6538L23.6593 10.0242ZM33.8206 10.2724V5.94414H30.8297V10.2724H26.5275V13.3657H30.8297V17.8209H33.8206V13.3657H38V10.2724H33.8206Z" fill="url(#paint0_linear_338_1018)"/>
<defs>
<linearGradient id="paint0_linear_338_1018" x1="0" y1="12.5" x2="38" y2="12.5" gradientUnits="userSpaceOnUse">
<stop stop-color="#1AAABD"/>
<stop offset="1" stop-color="#203F7D"/>
</linearGradient>
</defs>
</svg>
