<svg width="46" height="33" viewBox="0 0 46 33" fill="none" xmlns="http://www.w3.org/2000/svg">
<g filter="url(#filter0_d_335_330)">
<path d="M27.6593 10.0242C28.4684 16.0146 26.0355 25 16.0696 25C9.40147 25 4 19.4021 4 12.5C4 5.59789 9.40147 0 16.0696 0C19.1944 0 22.0458 1.235 24.1886 3.25485C21.6608 5.72484 21.7445 5.86912 20.7513 6.89636C19.5125 5.8345 18.1565 5.07272 16.064 5.07272C12.1022 5.07272 9.01646 8.39682 9.01646 12.4942C9.01646 16.5917 12.1022 19.9157 16.064 19.9157C20.0259 19.9157 21.5659 18.1671 22.5871 14.9585C20.701 14.9585 16.064 14.9585 16.064 14.9585V10.0069H27.6538L27.6593 10.0242ZM37.8206 10.2724V5.94414H34.8297V10.2724H30.5275V13.3657H34.8297V17.8209H37.8206V13.3657H42V10.2724H37.8206Z" fill="white"/>
</g>
<defs>
<filter id="filter0_d_335_330" x="0" y="0" width="46" height="33" filterUnits="userSpaceOnUse" color-interpolation-filters="sRGB">
<feFlood flood-opacity="0" result="BackgroundImageFix"/>
<feColorMatrix in="SourceAlpha" type="matrix" values="0 0 0 0 0 0 0 0 0 0 0 0 0 0 0 0 0 0 127 0" result="hardAlpha"/>
<feOffset dy="4"/>
<feGaussianBlur stdDeviation="2"/>
<feComposite in2="hardAlpha" operator="out"/>
<feColorMatrix type="matrix" values="0 0 0 0 0 0 0 0 0 0 0 0 0 0 0 0 0 0 0.25 0"/>
<feBlend mode="normal" in2="BackgroundImageFix" result="effect1_dropShadow_335_330"/>
<feBlend mode="normal" in="SourceGraphic" in2="effect1_dropShadow_335_330" result="shape"/>
</filter>
</defs>
</svg>
