<svg width="33" height="33" viewBox="0 0 33 33" fill="none" xmlns="http://www.w3.org/2000/svg">
<g filter="url(#filter0_d_335_329)">
<path d="M16.5 2.25439C19.8377 2.25439 20.2325 2.26754 21.5526 2.32895C22.7719 2.38597 23.4342 2.58772 23.8728 2.75877C24.4561 2.98684 24.8728 3.25439 25.3114 3.69298C25.75 4.13158 26.0175 4.54825 26.2456 5.13158C26.4167 5.57018 26.6184 6.23246 26.6754 7.45175C26.7368 8.77193 26.75 9.16667 26.75 12.5044C26.75 15.8421 26.7368 16.2368 26.6754 17.557C26.6184 18.7763 26.4167 19.4386 26.2456 19.8772C26.0175 20.4605 25.75 20.8772 25.3114 21.3158C24.8728 21.7544 24.4561 22.0219 23.8728 22.25C23.4342 22.4211 22.7719 22.6228 21.5526 22.6798C20.2368 22.7412 19.8377 22.7544 16.5 22.7544C13.1623 22.7544 12.7675 22.7412 11.4474 22.6798C10.2281 22.6228 9.56579 22.4211 9.12719 22.25C8.54386 22.0219 8.12719 21.7544 7.6886 21.3158C7.25 20.8772 6.98246 20.4605 6.75439 19.8772C6.58333 19.4386 6.38158 18.7763 6.32456 17.557C6.26316 16.2368 6.25 15.8421 6.25 12.5044C6.25 9.16667 6.26316 8.77193 6.32456 7.45175C6.38158 6.23246 6.58333 5.57018 6.75439 5.13158C6.98246 4.54825 7.25 4.13158 7.6886 3.69298C8.12719 3.25439 8.54386 2.98684 9.12719 2.75877C9.56579 2.58772 10.2281 2.38597 11.4474 2.32895C12.7675 2.26754 13.1623 2.25439 16.5 2.25439ZM16.5 0C13.1053 0 12.6798 0.0131588 11.3465 0.0745623C10.0175 0.135966 9.10526 0.346492 8.3114 0.653509C7.49123 0.973685 6.79386 1.39912 6.09649 2.09649C5.40351 2.78947 4.97368 3.48684 4.65351 4.3114C4.34649 5.10526 4.13158 6.01316 4.07456 7.34649C4.01316 8.67982 4 9.10526 4 12.5C4 15.8947 4.01316 16.3202 4.07456 17.6535C4.13596 18.9825 4.34649 19.8947 4.65351 20.6886C4.97368 21.5088 5.39912 22.2061 6.09649 22.9035C6.78947 23.5965 7.48684 24.0263 8.3114 24.3465C9.10526 24.6535 10.0132 24.8684 11.3465 24.9254C12.6798 24.9868 13.1053 25 16.5 25C19.8947 25 20.3202 24.9868 21.6535 24.9254C22.9825 24.864 23.8947 24.6535 24.6886 24.3465C25.5088 24.0263 26.2061 23.6009 26.9035 22.9035C27.6009 22.2061 28.0263 21.5132 28.3465 20.6886C28.6535 19.8947 28.8684 18.9868 28.9254 17.6535C28.9868 16.3202 29 15.8947 29 12.5C29 9.10526 28.9868 8.67982 28.9254 7.34649C28.864 6.01754 28.6535 5.10526 28.3465 4.3114C28.0263 3.49123 27.6009 2.79386 26.9035 2.09649C26.2061 1.39912 25.5132 0.973685 24.6886 0.653509C23.8947 0.346492 22.9868 0.13158 21.6535 0.0745623C20.3202 0.0131588 19.8947 0 16.5 0ZM16.5 6.07895C12.9561 6.07895 10.0789 8.95176 10.0789 12.5C10.0789 16.0482 12.9518 18.9211 16.5 18.9211C20.0482 18.9211 22.9211 16.0482 22.9211 12.5C22.9211 8.95176 20.0482 6.07895 16.5 6.07895ZM16.5 16.6667C14.1974 16.6667 12.3333 14.8026 12.3333 12.5C12.3333 10.1974 14.1974 8.33333 16.5 8.33333C18.8026 8.33333 20.6667 10.1974 20.6667 12.5C20.6667 14.8026 18.8026 16.6667 16.5 16.6667ZM23.1711 4.32895C22.3421 4.32895 21.6711 5 21.6711 5.82895C21.6711 6.65789 22.3421 7.32895 23.1711 7.32895C24 7.32895 24.6711 6.65789 24.6711 5.82895C24.6711 5 24 4.32895 23.1711 4.32895Z" fill="white"/>
</g>
<defs>
<filter id="filter0_d_335_329" x="0" y="0" width="33" height="33" filterUnits="userSpaceOnUse" color-interpolation-filters="sRGB">
<feFlood flood-opacity="0" result="BackgroundImageFix"/>
<feColorMatrix in="SourceAlpha" type="matrix" values="0 0 0 0 0 0 0 0 0 0 0 0 0 0 0 0 0 0 127 0" result="hardAlpha"/>
<feOffset dy="4"/>
<feGaussianBlur stdDeviation="2"/>
<feComposite in2="hardAlpha" operator="out"/>
<feColorMatrix type="matrix" values="0 0 0 0 0 0 0 0 0 0 0 0 0 0 0 0 0 0 0.25 0"/>
<feBlend mode="normal" in2="BackgroundImageFix" result="effect1_dropShadow_335_329"/>
<feBlend mode="normal" in="SourceGraphic" in2="effect1_dropShadow_335_329" result="shape"/>
</filter>
</defs>
</svg>
