<svg width="25" height="25" viewBox="0 0 25 25" fill="none" xmlns="http://www.w3.org/2000/svg">
<path d="M12.5 2.25439C15.8377 2.25439 16.2325 2.26754 17.5526 2.32895C18.7719 2.38597 19.4342 2.58772 19.8728 2.75877C20.4561 2.98684 20.8728 3.25439 21.3114 3.69298C21.75 4.13158 22.0175 4.54825 22.2456 5.13158C22.4167 5.57018 22.6184 6.23246 22.6754 7.45175C22.7368 8.77193 22.75 9.16667 22.75 12.5044C22.75 15.8421 22.7368 16.2368 22.6754 17.557C22.6184 18.7763 22.4167 19.4386 22.2456 19.8772C22.0175 20.4605 21.75 20.8772 21.3114 21.3158C20.8728 21.7544 20.4561 22.0219 19.8728 22.25C19.4342 22.4211 18.7719 22.6228 17.5526 22.6798C16.2368 22.7412 15.8377 22.7544 12.5 22.7544C9.16228 22.7544 8.76755 22.7412 7.44737 22.6798C6.22807 22.6228 5.56579 22.4211 5.12719 22.25C4.54386 22.0219 4.12719 21.7544 3.6886 21.3158C3.25 20.8772 2.98246 20.4605 2.75439 19.8772C2.58333 19.4386 2.38158 18.7763 2.32456 17.557C2.26316 16.2368 2.25 15.8421 2.25 12.5044C2.25 9.16667 2.26316 8.77193 2.32456 7.45175C2.38158 6.23246 2.58333 5.57018 2.75439 5.13158C2.98246 4.54825 3.25 4.13158 3.6886 3.69298C4.12719 3.25439 4.54386 2.98684 5.12719 2.75877C5.56579 2.58772 6.22807 2.38597 7.44737 2.32895C8.76755 2.26754 9.16228 2.25439 12.5 2.25439ZM12.5 0C9.10526 0 8.67982 0.0131588 7.34649 0.0745623C6.01754 0.135966 5.10526 0.346492 4.3114 0.653509C3.49123 0.973685 2.79386 1.39912 2.09649 2.09649C1.40351 2.78947 0.973685 3.48684 0.653509 4.3114C0.346492 5.10526 0.131578 6.01316 0.0745606 7.34649C0.0131571 8.67982 0 9.10526 0 12.5C0 15.8947 0.0131571 16.3202 0.0745606 17.6535C0.135964 18.9825 0.346492 19.8947 0.653509 20.6886C0.973685 21.5088 1.39912 22.2061 2.09649 22.9035C2.78947 23.5965 3.48684 24.0263 4.3114 24.3465C5.10526 24.6535 6.01316 24.8684 7.34649 24.9254C8.67982 24.9868 9.10526 25 12.5 25C15.8947 25 16.3202 24.9868 17.6535 24.9254C18.9825 24.864 19.8947 24.6535 20.6886 24.3465C21.5088 24.0263 22.2061 23.6009 22.9035 22.9035C23.6009 22.2061 24.0263 21.5132 24.3465 20.6886C24.6535 19.8947 24.8684 18.9868 24.9254 17.6535C24.9868 16.3202 25 15.8947 25 12.5C25 9.10526 24.9868 8.67982 24.9254 7.34649C24.864 6.01754 24.6535 5.10526 24.3465 4.3114C24.0263 3.49123 23.6009 2.79386 22.9035 2.09649C22.2061 1.39912 21.5132 0.973685 20.6886 0.653509C19.8947 0.346492 18.9868 0.13158 17.6535 0.0745623C16.3202 0.0131588 15.8947 0 12.5 0ZM12.5 6.07895C8.95614 6.07895 6.07895 8.95176 6.07895 12.5C6.07895 16.0482 8.95175 18.9211 12.5 18.9211C16.0482 18.9211 18.9211 16.0482 18.9211 12.5C18.9211 8.95176 16.0482 6.07895 12.5 6.07895ZM12.5 16.6667C10.1974 16.6667 8.33333 14.8026 8.33333 12.5C8.33333 10.1974 10.1974 8.33333 12.5 8.33333C14.8026 8.33333 16.6667 10.1974 16.6667 12.5C16.6667 14.8026 14.8026 16.6667 12.5 16.6667ZM19.1711 4.32895C18.3421 4.32895 17.6711 5 17.6711 5.82895C17.6711 6.65789 18.3421 7.32895 19.1711 7.32895C20 7.32895 20.6711 6.65789 20.6711 5.82895C20.6711 5 20 4.32895 19.1711 4.32895Z" fill="url(#paint0_linear_338_1017)"/>
<defs>
<linearGradient id="paint0_linear_338_1017" x1="0" y1="12.5" x2="25" y2="12.5" gradientUnits="userSpaceOnUse">
<stop stop-color="#1AAABD"/>
<stop offset="1" stop-color="#203F7D"/>
</linearGradient>
</defs>
</svg>
