<svg width="22" height="21" viewBox="0 0 22 21" fill="none" xmlns="http://www.w3.org/2000/svg">
<path fill-rule="evenodd" clip-rule="evenodd" d="M20.9079 14.905C20.344 14.6311 17.7038 13.2705 17.2168 13.0761C16.687 12.9171 16.3538 12.8022 15.9693 13.3854C15.6361 13.9332 14.5766 15.1789 14.2775 15.5323C13.9358 15.9211 13.6367 15.9564 13.107 15.6825C12.543 15.4086 10.8171 14.8255 8.74081 12.9171C7.11739 11.4416 6.03227 9.64805 5.72467 9.1091C5.42562 8.51715 5.68196 8.25208 5.94683 7.94285C6.21171 7.7043 6.5193 7.31556 6.77563 6.96215C6.85253 6.89147 6.92089 6.80311 6.96361 6.73243C7.10886 6.49388 7.18575 6.2995 7.30537 6.06094C7.49335 5.68103 7.41644 5.36299 7.27119 5.09794C7.16011 4.82404 6.06647 2.0586 5.61362 0.963035C5.16077 -0.159037 4.70792 0.0353484 4.40887 0.0353484C4.06709 0.0353484 3.73386 0 3.35791 0C2.98196 0 2.41804 0.114865 1.92247 0.697989C1.39272 1.24577 0 2.57103 0 5.33645C0 5.95492 0.111064 6.6176 0.307583 7.20072C0.83733 9.18864 2.04208 10.779 2.23005 11.0529C2.48638 11.4416 5.95538 17.2021 11.4494 19.4198C16.9861 21.6374 16.9861 20.8953 17.9601 20.8246C18.9427 20.7363 21.1642 19.4993 21.6085 18.174C22.0614 16.8929 22.0614 15.762 21.9076 15.5323C21.7965 15.3379 21.4206 15.1789 20.8908 14.905H20.9079Z" fill="white"/>
</svg>
