<svg width="25" height="25" viewBox="0 0 25 25" fill="none" xmlns="http://www.w3.org/2000/svg">
<path fill-rule="evenodd" clip-rule="evenodd" d="M12.7208 22.4235C10.6268 22.4235 8.67997 21.796 7.05129 20.7264L3.09593 21.9861L4.37322 18.1736C3.13865 16.5003 2.40741 14.4086 2.40741 12.1649C2.40741 11.8273 2.43115 11.5183 2.46914 11.1808C2.96772 5.99448 7.38367 1.92528 12.7208 1.92528C18.0579 1.92528 22.5973 6.09432 23.0152 11.371C23.0342 11.6467 23.0342 11.9129 23.0342 12.1649C23.0342 17.8218 18.4093 22.4235 12.7208 22.4235ZM18.3476 14.6368C18.0342 14.4895 16.567 13.7574 16.2963 13.6528C16.0019 13.5672 15.8167 13.5054 15.603 13.8192C15.4179 14.1139 14.8291 14.7842 14.6629 14.9743C14.4729 15.1835 14.3067 15.2025 14.0124 15.0552C13.699 14.9078 12.7398 14.594 11.5859 13.5672C10.6838 12.7733 10.0807 11.8083 9.90978 11.5184C9.74359 11.1999 9.88604 11.0572 10.0332 10.8909C10.1804 10.7625 10.3514 10.5533 10.4938 10.3632C10.5366 10.3252 10.5746 10.2776 10.5983 10.2396C10.679 10.1112 10.7217 10.0067 10.7882 9.8783C10.8927 9.67389 10.85 9.50277 10.7692 9.36016C10.7075 9.21279 10.0997 7.72486 9.84806 7.13539C9.5964 6.53167 9.34474 6.63625 9.17855 6.63625C8.98861 6.63625 8.80342 6.61723 8.5945 6.61723C8.38557 6.61723 8.07218 6.67904 7.79678 6.99279C7.50238 7.28752 6.7284 8.00057 6.7284 9.48849C6.7284 9.82126 6.79012 10.1778 6.89934 10.4916C7.19373 11.5612 7.86325 12.4168 7.96771 12.5642C8.11016 12.7734 10.038 15.8728 13.0912 17.066C16.1681 18.2592 16.1681 17.8599 16.7094 17.8218C17.2555 17.7743 18.49 17.1088 18.7369 16.3957C18.9886 15.7064 18.9886 15.0979 18.9031 14.9743C18.8414 14.8698 18.6325 14.7842 18.3381 14.6368H18.3476ZM24.981 11.8701C24.8101 5.27667 19.397 0 12.7208 0C6.04464 0 0.75499 5.15308 0.479587 11.642C0.460593 11.8083 0.460589 11.9985 0.460589 12.1649C0.460589 14.4657 1.11112 16.6239 2.21748 18.4683L0 25L6.79487 22.8418C8.5565 23.8068 10.584 24.3487 12.7161 24.3487C19.4967 24.3487 25 18.9057 25 12.1649C25 12.0603 24.9763 11.9747 24.9763 11.8701H24.981Z" fill="url(#paint0_linear_338_1019)"/>
<defs>
<linearGradient id="paint0_linear_338_1019" x1="0" y1="12.5" x2="25" y2="12.5" gradientUnits="userSpaceOnUse">
<stop stop-color="#1AAABD"/>
<stop offset="1" stop-color="#203F7D"/>
</linearGradient>
</defs>
</svg>
