<svg width="33" height="33" viewBox="0 0 33 33" fill="none" xmlns="http://www.w3.org/2000/svg">
<g filter="url(#filter0_d_335_331)">
<path fill-rule="evenodd" clip-rule="evenodd" d="M16.7208 22.4235C14.6268 22.4235 12.68 21.796 11.0513 20.7264L7.09593 21.9861L8.37322 18.1736C7.13865 16.5003 6.40741 14.4086 6.40741 12.1649C6.40741 11.8273 6.43115 11.5183 6.46914 11.1808C6.96772 5.99448 11.3837 1.92528 16.7208 1.92528C22.0579 1.92528 26.5973 6.09432 27.0152 11.371C27.0342 11.6467 27.0342 11.9129 27.0342 12.1649C27.0342 17.8218 22.4093 22.4235 16.7208 22.4235ZM22.3476 14.6368C22.0342 14.4895 20.567 13.7574 20.2963 13.6528C20.0019 13.5672 19.8167 13.5054 19.603 13.8192C19.4179 14.1139 18.8291 14.7842 18.6629 14.9743C18.4729 15.1835 18.3067 15.2025 18.0124 15.0552C17.699 14.9078 16.7398 14.594 15.5859 13.5672C14.6838 12.7733 14.0807 11.8083 13.9098 11.5184C13.7436 11.1999 13.886 11.0572 14.0332 10.8909C14.1804 10.7625 14.3514 10.5533 14.4938 10.3632C14.5366 10.3252 14.5746 10.2776 14.5983 10.2396C14.679 10.1112 14.7217 10.0067 14.7882 9.8783C14.8927 9.67389 14.85 9.50277 14.7692 9.36016C14.7075 9.21279 14.0997 7.72486 13.8481 7.13539C13.5964 6.53167 13.3447 6.63625 13.1785 6.63625C12.9886 6.63625 12.8034 6.61723 12.5945 6.61723C12.3856 6.61723 12.0722 6.67904 11.7968 6.99279C11.5024 7.28752 10.7284 8.00057 10.7284 9.48849C10.7284 9.82126 10.7901 10.1778 10.8993 10.4916C11.1937 11.5612 11.8632 12.4168 11.9677 12.5642C12.1102 12.7734 14.038 15.8728 17.0912 17.066C20.1681 18.2592 20.1681 17.8599 20.7094 17.8218C21.2555 17.7743 22.49 17.1088 22.7369 16.3957C22.9886 15.7064 22.9886 15.0979 22.9031 14.9743C22.8414 14.8698 22.6325 14.7842 22.3381 14.6368H22.3476ZM28.981 11.8701C28.8101 5.27667 23.397 0 16.7208 0C10.0446 0 4.75499 5.15308 4.47959 11.642C4.46059 11.8083 4.46059 11.9985 4.46059 12.1649C4.46059 14.4657 5.11112 16.6239 6.21748 18.4683L4 25L10.7949 22.8418C12.5565 23.8068 14.584 24.3487 16.7161 24.3487C23.4967 24.3487 29 18.9057 29 12.1649C29 12.0603 28.9763 11.9747 28.9763 11.8701H28.981Z" fill="white"/>
</g>
<defs>
<filter id="filter0_d_335_331" x="0" y="0" width="33" height="33" filterUnits="userSpaceOnUse" color-interpolation-filters="sRGB">
<feFlood flood-opacity="0" result="BackgroundImageFix"/>
<feColorMatrix in="SourceAlpha" type="matrix" values="0 0 0 0 0 0 0 0 0 0 0 0 0 0 0 0 0 0 127 0" result="hardAlpha"/>
<feOffset dy="4"/>
<feGaussianBlur stdDeviation="2"/>
<feComposite in2="hardAlpha" operator="out"/>
<feColorMatrix type="matrix" values="0 0 0 0 0 0 0 0 0 0 0 0 0 0 0 0 0 0 0.25 0"/>
<feBlend mode="normal" in2="BackgroundImageFix" result="effect1_dropShadow_335_331"/>
<feBlend mode="normal" in="SourceGraphic" in2="effect1_dropShadow_335_331" result="shape"/>
</filter>
</defs>
</svg>
