<?xml version="1.0" standalone="no"?>
<!DOCTYPE svg PUBLIC "-//W3C//DTD SVG 20010904//EN"
 "http://www.w3.org/TR/2001/REC-SVG-20010904/DTD/svg10.dtd">
<svg version="1.0" xmlns="http://www.w3.org/2000/svg"
 width="1392.000000pt" height="1392.000000pt" viewBox="0 0 1392.000000 1392.000000"
 preserveAspectRatio="xMidYMid meet">
<metadata>
Created by potrace 1.14, written by Peter Selinger 2001-2017
</metadata>
<g transform="translate(0.000000,1392.000000) scale(0.100000,-0.100000)"
fill="#000000" stroke="none">
<path d="M4698 11912 l-57 -3 18 -42 c20 -47 55 -126 77 -174 8 -17 14 -36 14
-42 0 -6 5 -11 12 -11 6 0 8 -3 5 -7 -4 -3 -2 -12 4 -20 6 -7 8 -13 4 -13 -5
0 0 -9 11 -21 10 -12 18 -22 16 -23 -4 -1 11 -40 37 -99 10 -23 33 -76 51
-117 18 -41 47 -108 66 -148 19 -41 34 -77 34 -81 0 -4 9 -25 19 -48 11 -22
21 -46 23 -54 2 -8 5 -16 8 -19 8 -9 40 -71 40 -80 0 -4 10 -29 22 -56 12 -27
21 -52 20 -56 -1 -5 3 -8 8 -8 5 0 9 -3 8 -7 -1 -5 8 -30 21 -58 12 -27 43
-97 67 -155 25 -58 58 -133 74 -166 16 -34 43 -97 61 -140 18 -44 40 -90 48
-104 9 -13 14 -24 12 -25 -4 0 -1 -7 99 -235 81 -186 86 -198 130 -295 18 -38
33 -75 34 -81 1 -7 8 -19 15 -28 7 -9 10 -16 6 -16 -4 0 -1 -7 6 -17 8 -9 13
-17 11 -17 -3 -1 15 -44 59 -143 27 -59 41 -98 37 -99 -2 -1 6 -11 16 -23 11
-12 16 -21 12 -21 -4 0 0 -12 8 -27 8 -16 25 -50 36 -78 26 -60 39 -91 74
-168 14 -32 26 -60 26 -62 0 -2 13 -32 29 -67 15 -35 39 -88 52 -118 13 -30
28 -58 34 -62 5 -4 7 -8 3 -8 -6 0 14 -49 99 -240 8 -19 23 -52 34 -72 10 -21
17 -38 15 -38 -2 0 9 -27 25 -60 16 -33 29 -63 29 -67 0 -3 11 -29 24 -57 38
-78 72 -157 87 -198 7 -21 17 -38 21 -38 4 0 7 -3 6 -7 -1 -9 8 -36 27 -78 33
-70 75 -166 75 -170 0 -2 15 -36 33 -77 18 -40 42 -93 52 -118 11 -25 22 -47
25 -50 3 -3 6 -12 8 -20 2 -8 11 -33 21 -55 10 -22 26 -57 35 -77 9 -21 23
-53 30 -70 74 -166 106 -243 106 -254 0 -8 4 -14 10 -14 5 0 13 -12 16 -27 4
-16 23 -62 42 -103 59 -131 72 -160 72 -164 0 -5 50 -119 75 -171 8 -16 40
-88 71 -160 81 -189 80 -186 105 -240 12 -27 23 -52 24 -55 1 -3 8 -18 15 -35
7 -16 14 -32 14 -35 1 -3 9 -21 18 -40 8 -19 55 -125 103 -235 47 -110 95
-218 106 -241 11 -22 21 -47 23 -56 1 -9 6 -22 12 -29 6 -8 23 -45 39 -84 15
-38 32 -75 37 -81 5 -7 10 -20 12 -30 2 -11 21 -55 41 -99 76 -166 85 -186 85
-192 0 -6 42 -100 61 -135 5 -10 9 -25 9 -33 0 -8 5 -15 11 -15 5 0 7 -4 4
-10 -3 -5 -2 -10 3 -10 5 0 12 -10 15 -22 7 -32 30 -90 42 -108 5 -8 10 -17
11 -20 2 -12 211 -490 224 -512 6 -10 10 -24 10 -32 0 -8 4 -16 9 -18 5 -1 11
-12 13 -23 1 -11 7 -23 11 -26 5 -3 10 -12 11 -20 4 -19 44 -113 148 -349 11
-25 27 -61 35 -80 51 -117 171 -335 208 -377 5 -6 32 -42 60 -80 48 -66 299
-323 315 -323 5 0 15 -6 22 -13 25 -25 193 -135 258 -168 36 -19 68 -38 71
-42 3 -5 8 -8 10 -7 2 1 22 -5 44 -15 135 -57 324 -118 401 -129 16 -3 40 -7
54 -10 26 -5 85 -13 180 -23 53 -6 910 -6 916 -1 1 2 -11 32 -28 68 -27 58
-48 106 -53 120 -2 6 -13 29 -98 217 -36 78 -62 144 -59 147 3 4 0 6 -6 6 -7
0 -11 3 -10 8 2 8 -7 29 -60 142 -22 47 -63 139 -92 205 -29 66 -70 157 -91
203 -22 46 -39 85 -39 87 0 4 -35 83 -130 288 -22 49 -40 91 -40 94 0 3 -13
31 -29 63 -16 32 -31 66 -33 76 -2 11 -5 21 -8 24 -6 5 -60 118 -60 125 0 2
-18 43 -41 92 -22 48 -52 115 -66 148 -14 33 -41 94 -60 135 -19 41 -41 91
-50 110 -9 19 -33 72 -54 118 -22 45 -39 84 -39 87 0 2 -11 28 -24 57 -13 29
-34 76 -46 103 -29 66 -59 133 -104 228 -20 43 -36 80 -36 82 0 2 -21 48 -46
102 -25 54 -47 103 -49 108 -13 43 -18 55 -26 55 -5 0 -9 8 -9 18 0 10 -3 22
-7 26 -5 4 -8 11 -9 14 0 4 -10 29 -22 55 -12 27 -22 53 -22 58 0 5 -5 9 -12
9 -6 0 -9 3 -5 6 3 3 -3 22 -13 42 -10 21 -28 60 -40 87 -12 28 -34 75 -47
105 -55 120 -66 145 -68 150 0 3 -10 25 -22 50 -30 65 -50 114 -49 121 1 4 -8
16 -18 28 -11 12 -16 21 -12 21 4 0 -2 17 -13 38 -23 43 -81 170 -81 177 0 2
-15 37 -34 77 -31 68 -43 94 -101 223 -12 28 -26 60 -30 73 -3 12 -11 22 -16
22 -6 0 -8 4 -4 9 3 5 1 12 -5 16 -5 3 -10 15 -10 26 0 10 -4 19 -10 19 -5 0
-9 3 -8 8 1 4 -8 29 -20 56 -12 27 -22 50 -22 53 0 2 -17 41 -39 86 -64 136
-101 218 -101 222 0 2 -15 36 -34 77 -18 40 -44 96 -56 123 -12 28 -33 74 -46
103 -13 29 -24 57 -24 62 0 6 -4 10 -10 10 -5 0 -9 3 -8 8 1 4 -5 23 -14 42
-68 152 -153 340 -178 391 -16 35 -30 68 -30 74 0 6 -5 16 -12 23 -6 6 -13 17
-14 24 -2 11 -67 155 -166 368 -17 36 -38 83 -48 105 -10 22 -29 66 -44 97
-14 31 -26 61 -26 66 0 5 -7 15 -15 22 -8 7 -15 19 -15 27 0 8 -13 42 -29 76
-16 34 -39 85 -51 112 -23 50 -64 142 -102 225 -11 25 -32 70 -45 100 -13 30
-34 75 -45 100 -11 25 -21 51 -22 58 -1 7 -8 18 -14 24 -7 7 -12 17 -12 23 0
6 -10 31 -21 55 -31 64 -62 133 -64 145 -2 6 -16 39 -33 75 -29 61 -63 139
-67 150 -1 3 -7 19 -15 35 -7 17 -19 46 -27 65 -8 19 -18 43 -23 52 -6 10 -10
24 -10 31 0 7 -6 19 -12 26 -7 6 -13 15 -14 19 -1 8 -11 35 -30 80 -8 17 -21
49 -30 70 -101 237 -292 602 -358 687 -9 11 -35 44 -58 74 -61 78 -209 221
-230 221 -4 0 -8 3 -8 8 0 4 -18 18 -40 32 -22 14 -40 28 -40 32 0 5 -5 8 -11
8 -7 0 -19 8 -28 18 -9 10 -23 21 -31 25 -8 4 -51 30 -95 57 -75 48 -137 80
-247 129 -26 12 -49 21 -52 21 -2 0 -17 5 -33 12 -15 6 -31 12 -35 13 -5 2 -9
3 -10 5 -2 1 -10 3 -18 5 -8 2 -60 15 -115 29 -55 13 -116 27 -135 30 -19 3
-46 8 -60 10 -35 6 -131 15 -225 22 -87 7 -585 11 -677 6z"/>
<path d="M13488 11915 c-2 -1 -30 -5 -63 -8 -33 -4 -89 -11 -124 -17 -35 -6
-70 -9 -78 -6 -7 3 -13 2 -13 -3 0 -5 -17 -11 -37 -14 -21 -4 -54 -9 -73 -13
-19 -4 -43 -7 -52 -8 -10 0 -18 -5 -18 -10 0 -5 -2 -7 -6 -4 -3 3 -37 -3 -77
-14 -40 -10 -83 -21 -97 -24 -14 -3 -34 -8 -45 -11 -11 -4 -23 -8 -27 -9 -5
-1 -9 -2 -10 -4 -3 -1 -21 -6 -50 -13 -7 -1 -19 -6 -25 -10 -7 -5 -17 -5 -23
-2 -5 3 -10 2 -10 -3 0 -8 -98 -38 -112 -34 -5 1 -8 -3 -8 -10 0 -6 -3 -9 -6
-5 -6 5 -53 -9 -109 -34 -11 -4 -63 -25 -115 -45 -52 -20 -124 -50 -160 -66
-36 -17 -71 -31 -77 -31 -7 0 -13 -4 -13 -9 0 -4 -9 -8 -19 -8 -11 0 -21 -3
-23 -7 -1 -5 -40 -26 -85 -48 -46 -22 -83 -43 -83 -47 0 -5 -6 -8 -12 -8 -7 0
-60 -29 -117 -65 -57 -36 -105 -65 -107 -65 -10 0 -288 -200 -341 -245 -6 -5
-24 -20 -40 -32 -15 -12 -41 -34 -57 -48 -16 -14 -33 -25 -38 -25 -5 0 -6 -4
-3 -10 3 -5 2 -10 -3 -10 -18 0 -255 -230 -339 -329 -15 -18 -43 -48 -60 -67
-18 -19 -33 -38 -33 -43 0 -5 -3 -11 -8 -13 -4 -1 -32 -34 -62 -73 -30 -38
-59 -73 -65 -77 -6 -5 -6 -8 0 -8 6 0 6 -3 -1 -8 -12 -8 -104 -139 -104 -147
0 -3 -9 -15 -20 -27 -10 -12 -17 -25 -14 -30 3 -4 1 -8 -5 -8 -5 0 -16 -12
-24 -27 -7 -16 -28 -52 -45 -80 -17 -29 -28 -53 -24 -53 4 0 2 -4 -4 -8 -13
-8 -105 -185 -153 -292 -18 -41 -44 -99 -57 -127 -13 -29 -25 -63 -28 -75 -2
-13 -11 -36 -20 -52 -8 -16 -13 -33 -10 -38 3 -4 1 -8 -4 -8 -5 0 -9 -6 -9
-12 0 -7 -12 -44 -26 -83 -14 -38 -31 -90 -38 -115 -7 -25 -14 -49 -15 -55
-12 -37 -55 -194 -58 -210 -2 -11 -9 -40 -16 -65 -7 -25 -14 -56 -17 -70 -2
-13 -11 -55 -18 -92 -8 -38 -14 -72 -14 -76 1 -4 0 -9 -1 -12 -23 -58 -34
-601 -16 -790 16 -160 23 -224 35 -300 6 -36 13 -81 16 -100 5 -30 17 -88 51
-240 3 -13 24 -81 47 -150 22 -69 42 -127 42 -130 1 -3 5 -13 9 -22 4 -9 9
-23 10 -32 1 -8 5 -19 9 -22 4 -4 7 -18 7 -31 0 -12 5 -23 10 -23 6 0 10 -9
10 -20 0 -18 8 -34 55 -116 l18 -31 27 31 c25 28 94 122 130 176 8 12 23 32
34 43 10 12 32 43 48 70 16 26 34 47 39 47 5 0 9 5 9 10 0 12 41 73 53 78 4 2
7 8 7 14 0 9 14 28 60 85 6 7 10 15 10 18 0 4 6 13 13 20 26 30 37 44 37 50 0
6 41 66 51 75 3 3 30 41 59 85 29 44 57 82 62 83 4 2 8 8 8 13 0 5 23 40 50
78 28 38 50 72 50 76 0 3 6 12 13 20 13 12 190 266 212 303 6 9 12 19 15 22 3
3 20 28 38 55 17 28 37 57 44 65 7 8 18 22 23 32 6 9 48 73 95 140 46 68 115
168 152 223 37 55 71 105 76 111 5 5 22 30 38 55 16 24 31 46 34 49 3 3 39 56
80 117 41 62 78 113 83 113 4 0 7 5 7 10 0 6 12 28 28 49 15 21 33 47 39 57
95 141 178 260 184 262 5 2 9 9 9 15 0 7 11 24 24 39 14 14 22 29 19 32 -4 3
-1 6 5 6 7 0 12 7 12 15 0 8 3 15 8 15 4 0 23 25 42 55 19 30 38 55 43 55 4 0
7 6 7 13 0 7 8 22 18 33 9 11 22 27 27 36 37 59 111 164 117 166 4 2 8 8 8 12
0 9 88 140 100 150 4 3 9 12 13 20 4 8 27 44 52 80 25 36 50 72 55 80 6 8 32
47 58 85 27 39 97 142 157 230 228 337 259 380 267 383 4 2 8 7 8 12 0 4 18
34 41 66 22 33 56 84 76 114 20 30 41 59 45 65 5 5 77 107 159 225 83 118 158
221 167 228 9 6 13 12 9 12 -6 0 52 81 116 164 12 16 33 48 46 70 14 23 29 44
35 48 6 4 8 8 4 8 -3 0 2 22 12 49 9 27 17 59 16 72 l-1 24 -167 1 c-92 1
-168 1 -170 -1z"/>
<path d="M4097 10908 c-9 -18 -43 -91 -76 -163 -34 -71 -66 -138 -71 -147 -6
-10 -10 -24 -10 -32 0 -8 -5 -16 -11 -18 -5 -2 -11 -10 -13 -18 -3 -16 -19
-52 -78 -180 -19 -42 -38 -85 -42 -98 -4 -12 -11 -22 -15 -22 -4 0 -8 -6 -8
-12 0 -7 -16 -44 -34 -83 -18 -38 -34 -72 -34 -75 -1 -3 -14 -31 -28 -62 -35
-76 -76 -166 -78 -176 -1 -4 -14 -29 -28 -57 -14 -27 -26 -56 -27 -64 -2 -8
-6 -17 -11 -20 -4 -3 -9 -11 -10 -17 -2 -12 -20 -51 -138 -309 -13 -28 -25
-57 -27 -65 -2 -8 -6 -17 -9 -20 -10 -8 -84 -184 -81 -192 1 -5 -2 -8 -7 -8
-5 0 -13 -10 -17 -22 -8 -28 -45 -110 -167 -377 -31 -67 -57 -129 -57 -137 0
-8 -4 -14 -10 -14 -5 0 -10 -6 -10 -13 0 -8 -6 -27 -14 -43 -28 -56 -96 -205
-96 -210 0 -2 -22 -52 -50 -110 -27 -58 -50 -109 -50 -113 0 -4 -14 -36 -31
-72 -27 -55 -48 -102 -54 -119 -1 -3 -12 -27 -25 -55 -13 -27 -25 -52 -25 -55
-1 -3 -13 -30 -27 -60 -14 -30 -28 -65 -32 -77 -4 -13 -11 -23 -15 -23 -4 0
-8 -6 -8 -12 0 -7 -10 -35 -23 -63 -12 -27 -36 -78 -51 -113 -16 -34 -29 -65
-30 -70 0 -4 -9 -23 -19 -42 -17 -33 -40 -83 -80 -175 -10 -22 -30 -67 -46
-100 -15 -33 -27 -63 -26 -67 1 -5 -2 -8 -6 -8 -4 0 -9 -10 -9 -22 -1 -13 -7
-24 -13 -26 -5 -2 -10 -9 -10 -16 0 -6 -16 -44 -35 -85 -19 -40 -35 -78 -35
-86 0 -7 -6 -18 -14 -24 -8 -7 -17 -23 -20 -37 -4 -14 -22 -58 -41 -99 -19
-40 -53 -116 -76 -167 -23 -51 -49 -109 -57 -128 -9 -19 -16 -37 -17 -40 0 -3
-8 -21 -17 -40 -9 -19 -40 -87 -68 -150 -28 -63 -57 -127 -65 -142 -8 -14 -15
-33 -15 -42 0 -9 -4 -16 -10 -16 -5 0 -10 -7 -10 -16 0 -9 -6 -28 -14 -42 -18
-35 -65 -140 -67 -150 -1 -4 -11 -25 -22 -47 -12 -22 -21 -42 -22 -45 0 -3 -7
-16 -15 -30 -7 -14 -12 -25 -10 -25 2 0 -6 -20 -18 -45 -60 -126 -182 -405
-182 -416 0 -8 -4 -14 -8 -14 -4 0 -14 -16 -21 -36 -7 -20 -22 -56 -32 -80
-11 -24 -18 -45 -17 -46 2 -2 -7 -18 -20 -36 -13 -17 -21 -32 -18 -32 3 0 -3
-17 -14 -37 -17 -34 -41 -89 -45 -103 0 -3 -13 -30 -27 -60 -48 -102 -90 -195
-92 -205 -3 -13 -40 -89 -46 -95 -3 -3 -7 -14 -8 -25 -2 -11 -9 -23 -15 -27
-7 -4 -9 -8 -4 -8 4 0 0 -15 -10 -33 -9 -17 -18 -34 -18 -37 -1 -3 -11 -25
-22 -50 -11 -25 -30 -67 -43 -95 -12 -27 -32 -72 -45 -100 -67 -148 -103 -230
-127 -285 -10 -25 -25 -57 -33 -71 -8 -14 -12 -29 -8 -33 3 -3 1 -6 -5 -6 -7
0 -12 -9 -12 -20 0 -11 -5 -20 -11 -20 -5 0 -8 -4 -5 -9 3 -4 -1 -17 -9 -27
-8 -10 -15 -27 -15 -36 0 -10 -5 -18 -10 -18 -6 0 -9 -3 -8 -7 1 -5 -5 -24
-14 -43 -8 -19 -41 -93 -73 -165 -32 -71 -74 -164 -93 -205 -19 -41 -35 -79
-36 -85 -1 -5 -10 -25 -19 -42 -10 -18 -14 -33 -10 -33 5 0 3 -4 -2 -8 -9 -6
-31 -48 -33 -62 0 -3 -23 -54 -51 -114 -28 -59 -51 -114 -51 -122 0 -8 -4 -14
-10 -14 -5 0 -10 -6 -10 -13 0 -7 -12 -38 -26 -67 -30 -63 -47 -104 -42 -106
2 -1 -6 -11 -16 -23 -11 -12 -16 -21 -12 -21 3 0 0 -13 -9 -30 -8 -16 -15 -33
-15 -37 0 -10 1970 -10 1986 0 14 8 124 199 124 214 0 6 4 13 9 15 5 1 11 10
13 18 2 8 8 19 15 25 6 5 23 34 38 63 15 28 31 52 36 52 5 0 9 5 9 12 0 16
173 266 225 324 6 6 30 35 55 65 47 56 217 229 224 229 3 0 17 12 33 28 49 47
173 144 253 197 25 17 51 36 58 43 7 6 20 12 28 12 8 0 12 5 9 10 -3 6 -1 10
6 10 10 0 71 34 154 87 11 7 40 23 65 36 25 13 62 33 83 45 21 12 43 22 49 22
6 0 19 7 28 15 10 9 26 17 37 20 12 2 29 8 39 14 16 9 66 31 84 36 3 1 22 9
44 18 21 9 40 17 42 17 1 0 15 5 31 12 15 6 33 12 38 14 6 1 46 13 90 27 142
45 309 86 370 92 17 2 55 9 87 15 31 6 60 10 65 9 4 -1 10 0 13 1 15 5 52 10
111 13 37 3 70 6 75 9 5 2 53 4 106 4 54 -1 98 1 98 4 0 3 93 5 208 4 610 -6
734 -3 844 22 48 11 65 14 96 20 18 3 35 10 37 15 3 4 12 6 20 2 8 -3 15 0 15
6 0 6 5 11 11 11 6 0 33 11 60 25 92 46 201 139 287 245 65 81 66 83 70 100 2
8 8 18 14 21 5 3 10 10 10 15 0 5 6 24 14 43 14 35 22 59 29 97 2 10 4 19 5
19 1 0 3 9 6 20 19 94 19 295 -1 375 -3 14 -8 36 -10 50 -8 53 -91 240 -107
240 -4 0 -8 4 -8 10 0 30 -197 230 -235 238 -8 2 -15 8 -15 13 0 5 -7 9 -15 9
-8 0 -15 4 -15 8 0 6 -41 27 -70 36 -3 1 -27 9 -55 19 -27 9 -61 18 -75 21
-14 3 -36 7 -50 11 -46 10 -113 18 -275 32 -80 8 -156 8 -1373 1 l-662 -4 4
26 c8 43 19 75 29 88 5 6 7 12 4 12 -4 0 8 33 24 73 17 39 38 88 46 107 15 36
24 56 66 150 14 30 35 78 47 105 12 28 33 75 47 105 14 30 29 64 33 75 5 11
18 41 29 67 12 26 21 49 21 52 0 2 10 26 22 53 12 26 23 53 23 58 2 12 11 34
37 95 11 25 21 52 23 60 3 13 73 212 88 250 16 40 95 309 101 343 2 15 7 30
10 35 3 5 8 22 11 38 3 16 11 53 19 82 8 28 12 52 10 52 -3 0 0 8 5 18 5 9 12
33 15 52 3 19 8 46 11 60 6 23 8 35 19 100 3 14 5 25 6 25 1 0 3 14 5 30 2 17
6 44 10 60 3 17 8 44 10 60 1 17 5 46 8 65 9 54 18 131 22 180 2 25 7 73 10
107 20 201 20 558 -1 808 -3 39 -7 90 -9 115 -2 25 -4 45 -5 45 -2 0 -4 16
-15 120 -4 39 -10 77 -15 85 -4 8 -6 24 -4 34 1 11 0 24 -3 30 -4 5 -7 21 -9
35 -5 49 -22 139 -50 260 -8 36 -17 82 -20 101 -4 19 -9 37 -13 40 -3 3 -7 14
-8 25 -2 11 -4 27 -6 35 -10 39 -19 76 -23 88 -2 7 -4 14 -4 17 -1 3 -6 19
-11 37 -6 18 -12 41 -14 52 -2 10 -21 71 -41 135 -21 64 -39 121 -40 126 -5
21 -27 81 -36 98 -5 10 -6 22 -3 27 4 6 1 10 -4 10 -6 0 -11 5 -11 11 0 6 -11
33 -24 59 -13 27 -22 51 -19 54 4 3 1 6 -5 6 -7 0 -11 3 -10 8 0 4 -6 24 -15
44 -10 21 -17 42 -17 48 0 21 -18 9 -33 -22z"/>
</g>
</svg>
