<svg width="45" height="25" viewBox="0 0 45 25" fill="none" xmlns="http://www.w3.org/2000/svg">
<path fill-rule="evenodd" clip-rule="evenodd" d="M0 1C0 0.447715 0.447715 0 1 0H43.9997C44.552 0 44.9997 0.447715 44.9997 1V3.86484C44.9997 4.41712 44.552 4.86484 43.9997 4.86484H0.999999C0.447715 4.86484 0 4.41712 0 3.86484V1ZM0 10.7297C0 10.1774 0.447715 9.72969 1 9.72969H43.9997C44.552 9.72969 44.9997 10.1774 44.9997 10.7297V13.5945C44.9997 14.1468 44.552 14.5945 43.9997 14.5945H0.999999C0.447715 14.5945 0 14.1468 0 13.5945V10.7297ZM1 19.4594C0.447715 19.4594 0 19.9071 0 20.4594V23.3242C0 23.8765 0.447715 24.3242 0.999999 24.3242H43.9997C44.552 24.3242 44.9997 23.8765 44.9997 23.3242V20.4594C44.9997 19.9071 44.552 19.4594 43.9997 19.4594H1Z" fill="url(#paint0_linear_551_4889)"/>
<defs>
<linearGradient id="paint0_linear_551_4889" x1="22.4999" y1="0" x2="22.4999" y2="24.3242" gradientUnits="userSpaceOnUse">
<stop stop-color="#1AAABD"/>
<stop offset="1" stop-color="#20417E"/>
<stop offset="1.0001" stop-color="#999999"/>
</linearGradient>
</defs>
</svg>
