<svg width="41" height="23" viewBox="0 0 41 23" fill="none" xmlns="http://www.w3.org/2000/svg">
<path d="M36.8818 0H3.70392C1.6583 0 0 1.6775 0 3.74681V19.0826C0 21.1519 1.6583 22.8294 3.70392 22.8294H36.8818C38.9274 22.8294 40.5857 21.1519 40.5857 19.0826V3.74681C40.5857 1.6775 38.9274 0 36.8818 0Z" fill="#FF4B55"/>
<path d="M27.1714 13.3445C27.1714 13.3445 25.8778 13.1288 24.9196 12.3341C24.6369 12.0997 24.2266 11.9206 23.8271 11.7882C24.1483 11.7739 24.489 11.7829 24.811 11.848C26.1447 12.1177 27.438 11.4703 27.438 11.4703C27.438 11.4703 26.1331 11.6019 24.9999 11.0868C24.6934 10.9475 24.2959 10.8819 23.9078 10.8542C24.1869 10.774 24.4831 10.7112 24.7755 10.695C26.1342 10.6196 27.2224 9.66714 27.2224 9.66714C27.2224 9.66714 25.9929 10.1235 24.7664 9.91069C24.4092 9.84868 23.9707 9.8951 23.5627 9.97712C23.8311 9.80852 24.1267 9.65096 24.4333 9.54952C25.7252 9.12208 26.527 7.91845 26.527 7.91845C26.527 7.91845 25.4593 8.67999 24.2197 8.79482C23.8516 8.82887 23.4324 8.99416 23.0541 9.18445C23.2724 8.94517 23.5215 8.70831 23.7973 8.5253C24.9311 7.77287 25.3878 6.40065 25.3878 6.40065C25.3878 6.40065 24.5583 7.41641 23.3926 7.85349C23.0749 7.97266 22.7455 8.21128 22.4498 8.46844C22.5911 8.21143 22.7573 7.95434 22.9547 7.73352C23.8616 6.71908 23.9567 5.27602 23.9567 5.27602C23.9567 5.27602 23.4107 6.4684 22.3934 7.18581C22.0968 7.39501 21.8197 7.73838 21.5891 8.08542C21.6596 7.77604 21.7569 7.45518 21.902 7.16602C22.5125 5.94988 22.2275 4.53205 22.2275 4.53205C22.2275 4.53205 22.0118 5.82564 21.2171 6.78389C20.9827 7.06657 20.8036 7.4768 20.6712 7.87652C20.6569 7.55529 20.6659 7.21457 20.731 6.8926C21.0007 5.55885 20.3533 4.26562 20.3533 4.26562C20.3533 4.26562 20.4849 5.57047 19.9697 6.70371C19.8304 7.01022 19.7648 7.40773 19.7371 7.79575C19.6569 7.51667 19.5941 7.22053 19.5779 6.92813C19.5026 5.56944 18.5501 4.48122 18.5501 4.48122C18.5501 4.48122 19.0064 5.71067 18.7936 6.93718C18.7316 7.29438 18.778 7.73286 18.86 8.14096C18.6914 7.87255 18.5339 7.57699 18.4324 7.27025C18.005 5.97843 16.8014 5.17664 16.8014 5.17664C16.8014 5.17664 17.5629 6.24434 17.6777 7.48387C17.7118 7.85195 17.8771 8.2713 18.0674 8.64954C17.8282 8.43129 17.5913 8.18215 17.4082 7.90623C16.6558 6.77248 15.2835 6.31584 15.2835 6.31584C15.2835 6.31584 16.2993 7.14535 16.7364 8.31103C16.8556 8.6288 17.0942 8.95819 17.3513 9.25389C17.0943 9.11251 16.8372 8.94635 16.6164 8.74892C15.602 7.84202 14.1589 7.74691 14.1589 7.74691C14.1589 7.74691 15.3513 8.29293 16.0687 9.31031C16.2778 9.60682 16.6212 9.88407 16.9681 10.1146C16.6588 10.0441 16.3379 9.94681 16.0488 9.80168C14.8327 9.19122 13.4149 9.47626 13.4149 9.47626C13.4149 9.47626 14.7085 9.69193 15.6667 10.4866C15.9494 10.721 16.3596 10.9001 16.7593 11.0325C16.4381 11.0468 16.0974 11.0378 15.7754 10.9727C14.4417 10.7031 13.1484 11.3504 13.1484 11.3504C13.1484 11.3504 14.4533 11.2188 15.5865 11.734C15.8931 11.8733 16.2906 11.9389 16.6786 11.9666C16.3995 12.0468 16.1034 12.1096 15.811 12.1258C14.4523 12.2011 13.364 13.1536 13.364 13.1536C13.364 13.1536 14.5935 12.6973 15.82 12.9101C16.1772 12.9721 16.6157 12.9257 17.0238 12.8437C16.7554 13.0123 16.4598 13.1698 16.1531 13.2713C14.8612 13.6987 14.0595 14.9023 14.0595 14.9023C14.0595 14.9023 15.1272 14.1408 16.3667 14.026C16.7348 13.9919 17.1541 13.8266 17.5324 13.6363C17.3141 13.8755 17.065 14.1124 16.7891 14.2955C15.6553 15.0479 15.1986 16.4201 15.1986 16.4201C15.1986 16.4201 16.0281 15.4044 17.1938 14.9673C17.5115 14.8481 17.8409 14.6095 18.1366 14.3524C17.9953 14.6093 17.829 14.8664 17.6318 15.0872C16.7248 16.1016 16.6297 17.5447 16.6297 17.5447C16.6297 17.5447 17.1758 16.3523 18.1932 15.6349C18.4897 15.4257 18.7669 15.0823 18.9974 14.7354C18.927 15.0448 18.8297 15.3656 18.6845 15.6548C18.0741 16.8709 18.3591 18.2887 18.3591 18.2887C18.3591 18.2887 18.5748 16.9951 19.3694 16.0369C19.6039 15.7542 19.783 15.344 19.9154 14.9443C19.9296 15.2656 19.9207 15.6063 19.8556 15.9283C19.5859 17.262 20.2333 18.5552 20.2333 18.5552C20.2333 18.5552 20.1016 17.2504 20.6168 16.1172C20.7561 15.8106 20.8218 15.4131 20.8494 15.0251C20.9297 15.3042 20.9925 15.6003 21.0087 15.8927C21.084 17.2514 22.0365 18.3396 22.0365 18.3396C22.0365 18.3396 21.5802 17.1101 21.793 15.8837C21.855 15.5265 21.8085 15.088 21.7265 14.68C21.8951 14.9484 22.0527 15.2439 22.1541 15.5506C22.5816 16.8424 23.7852 17.6442 23.7852 17.6442C23.7852 17.6442 23.0237 16.5765 22.9088 15.3369C22.8748 14.9688 22.7095 14.5495 22.5191 14.1713C22.7584 14.3895 22.9953 14.6386 23.1784 14.9146C23.9308 16.0483 25.303 16.505 25.303 16.505C25.303 16.505 24.2872 15.6755 23.8502 14.5098C23.731 14.1921 23.4924 13.8627 23.2352 13.567C23.4922 13.7083 23.7492 13.8746 23.9701 14.0719C24.9845 14.9788 26.4276 15.0739 26.4276 15.0739C26.4276 15.0739 25.2352 14.5279 24.5178 13.5105C24.3086 13.2139 23.9652 12.9367 23.6182 12.7062C23.9275 12.7767 24.2483 12.874 24.5375 13.0191C25.7536 13.6295 27.1714 13.3445 27.1714 13.3445ZM20.3015 14.7051C18.4807 14.7051 17.0047 13.229 17.0047 11.4083C17.0047 9.58748 18.4807 8.11146 20.3015 8.11146C22.1223 8.11146 23.5983 9.58748 23.5983 11.4083C23.5983 13.229 22.1223 14.7051 20.3015 14.7051Z" fill="#FFE15A"/>
<path d="M19.2559 10.0775C19.3266 10.0226 19.3968 9.96753 19.4681 9.91853C18.9991 9.70604 18.577 9.60399 18.2808 9.5583C18.2337 9.60937 18.1911 9.66418 18.1479 9.71863C18.4388 9.77491 18.8296 9.88233 19.2559 10.0775ZM18.4232 9.41277C18.7415 9.4486 19.2022 9.543 19.7134 9.76204C19.7972 9.71277 19.8827 9.66627 19.9696 9.62261C19.4177 9.39688 18.9195 9.31278 18.5765 9.28681C18.525 9.32845 18.4715 9.3676 18.4232 9.41277ZM20.0804 10.9412C20.0156 10.8803 19.9488 10.8214 19.8801 10.7648C19.2604 11.3524 18.7182 12.2093 18.4734 13.4527C18.5624 13.532 18.6508 13.6122 18.7495 13.6797C18.9293 12.4151 19.4565 11.5423 20.0804 10.9412ZM19.8401 10.3951C19.9103 10.3388 19.9805 10.2823 20.0517 10.232C19.965 10.1769 19.8786 10.1284 19.7925 10.0813C19.7187 10.1316 19.6448 10.1803 19.5719 10.2369C19.663 10.2867 19.7525 10.3394 19.8401 10.3951ZM21.5527 10.2359C22.084 10.7008 22.5697 11.3555 22.9153 12.2631C23.004 11.9936 23.064 11.7111 23.064 11.4121C23.0647 10.8658 22.9013 10.3319 22.5947 9.8791C22.3207 9.93339 21.9528 10.0395 21.5527 10.2359ZM20.1004 10.5717C20.1696 10.6229 20.2374 10.6808 20.3055 10.7377C20.3735 10.6807 20.4413 10.6229 20.5106 10.5717C20.4425 10.5152 20.3745 10.4596 20.3055 10.4088C20.2364 10.4597 20.1685 10.5152 20.1004 10.5717ZM20.3055 9.77602C20.2171 9.82139 20.1302 9.86958 20.045 9.92052C20.1334 9.96676 20.2203 10.0159 20.3055 10.068C20.3907 10.016 20.4775 9.96683 20.566 9.92052C20.4807 9.86955 20.3939 9.82136 20.3055 9.77602ZM18.1728 13.1353C18.4646 11.9481 19.0147 11.1348 19.6303 10.5753C19.5465 10.5163 19.4606 10.4605 19.3726 10.4079C18.7802 10.9268 18.2441 11.6767 17.9138 12.7571C17.9893 12.8902 18.076 13.0167 18.1728 13.1353ZM19.0582 10.2359C18.6581 10.0394 18.2903 9.93347 18.0162 9.87902C17.7096 10.3319 17.5461 10.8658 17.5469 11.412C17.5469 11.711 17.6069 11.9935 17.6956 12.263C18.0412 11.3554 18.5268 10.7008 19.0582 10.2359ZM20.3055 9.46766C20.8923 9.22611 21.4337 9.14032 21.8187 9.11766C21.3839 8.83248 20.8649 8.66406 20.3055 8.66406C19.746 8.66406 19.227 8.83255 18.7922 9.11766C19.1772 9.14032 19.7186 9.22604 20.3055 9.46766ZM20.3055 11.1737C19.7553 11.781 19.3012 12.6531 19.1539 13.9019C19.5053 14.0637 19.893 14.16 20.3055 14.16C20.718 14.16 21.1056 14.0637 21.4571 13.9019C21.3097 12.6531 20.8556 11.781 20.3055 11.1737ZM21.2384 10.4079C21.1504 10.4606 21.0645 10.5164 20.9806 10.5753C21.5961 11.1347 22.1463 11.9481 22.4381 13.1353C22.5349 13.0167 22.6216 12.8902 22.6971 12.7571C22.3669 11.6768 21.8308 10.9268 21.2384 10.4079ZM22.1374 13.4527C21.8927 12.2093 21.3505 11.3525 20.7307 10.7648C20.662 10.8214 20.5952 10.8802 20.5304 10.9412C21.1544 11.5423 21.6815 12.4151 21.8613 13.6796C21.9601 13.6122 22.0484 13.532 22.1374 13.4527ZM20.6413 9.62254C20.7282 9.66621 20.8137 9.71271 20.8976 9.76196C21.4088 9.54293 21.8695 9.44853 22.1877 9.4127C22.1394 9.36752 22.086 9.32838 22.0344 9.28666C21.6915 9.31278 21.1932 9.39688 20.6413 9.62254ZM20.7708 10.3951C20.8585 10.3395 20.9479 10.2867 21.039 10.2369C20.9662 10.1803 20.8923 10.1316 20.8185 10.0813C20.7324 10.1285 20.646 10.1769 20.5592 10.232C20.6304 10.2823 20.7006 10.3389 20.7708 10.3951ZM21.355 10.0775C21.7814 9.88233 22.1722 9.77491 22.4629 9.7187C22.4197 9.66425 22.3772 9.60937 22.33 9.55838C22.0338 9.60407 21.6116 9.70605 21.1426 9.91861C21.2141 9.96746 21.2845 10.0226 21.355 10.0775Z" fill="#FFE15A"/>
</svg>
