<svg width="116" height="116" viewBox="0 0 116 116" fill="none" xmlns="http://www.w3.org/2000/svg">
<path fill-rule="evenodd" clip-rule="evenodd" d="M21.373 67.3L35.1118 67.2917C37.0678 63.6874 38.7914 60.9824 42.4161 58.5399C52.4879 51.7538 60.2962 56.6434 64.2559 53.4952C65.8513 52.2265 66.7363 50.9031 66.6063 48.3119C66.5012 46.2007 65.3007 44.5845 63.7609 43.636C61.716 42.3761 56.4166 42.795 53.4394 42.8003L46.091 42.8163C46.1639 42.0489 47.5497 39.1527 48.0122 38.0939C52.5278 27.7578 53.1154 18.9927 49.3807 8.35422L48.6429 6.69843C48.1795 7.12676 21.3732 67.2995 21.373 67.3Z" fill="#1AABBE"/>
<path fill-rule="evenodd" clip-rule="evenodd" d="M90.442 67.3703L95.5592 67.335L87.3598 49.0224C84.6625 43.0236 81.7989 36.6301 79.1306 30.6966C76.3754 24.5688 73.5655 18.5705 70.884 12.3719C69.6364 9.48843 68.1172 5.53137 66.1121 3.78402C61.3236 -0.390317 57.7933 0.0453619 52.2305 0.0578235L76.3001 55.0844C77.0327 56.7172 77.5642 58.041 78.2812 59.6105C80.4378 64.3343 85.0053 67.365 90.442 67.3703Z" fill="#203F7D"/>
<path fill-rule="evenodd" clip-rule="evenodd" d="M90.0965 37.2476C90.7025 36.7906 102.119 19.9548 102.92 18.818C106.357 13.9337 110.612 7.41252 114.109 2.60121C114.637 1.87508 115.42 1.00038 115.441 0.0705448C111.444 -0.429039 105.001 1.83578 102.189 3.36728C94.3817 7.6215 89.8415 14.1549 88.103 22.8345C87.4721 25.9846 87.8422 30.9914 88.8423 34.1601L89.6312 36.4521C89.6362 36.4636 89.7819 36.7767 89.7943 36.7983L90.0965 37.2476Z" fill="#1AABBE"/>
<path d="M0 99.3512L6.25883 85.4427H8.8021L15.0808 99.3512H12.3786L6.99399 86.8137H8.02719L2.66249 99.3512H0ZM2.88105 96.1324L3.57647 94.1057H11.0871L11.7825 96.1324H2.88105ZM16.9747 99.5499C16.7495 99.5499 16.5243 99.53 16.2991 99.4903C16.0739 99.4505 15.8289 99.4042 15.564 99.3512L15.7428 97.106C15.9282 97.159 16.1269 97.1854 16.3389 97.1854C16.8952 97.1854 17.3389 96.9603 17.6701 96.5099C18.0013 96.0463 18.2397 95.3707 18.3854 94.4832C18.5311 93.5957 18.6304 92.5029 18.6834 91.2048L18.8821 85.4427H29.1148V99.3512H26.5715V86.9925L27.1676 87.6283H20.5511L21.1075 86.9726L20.9684 91.1054C20.9287 92.483 20.8359 93.6951 20.6902 94.7415C20.5445 95.788 20.3193 96.6688 20.0147 97.3841C19.7233 98.0862 19.3325 98.6227 18.8424 98.9935C18.3523 99.3644 17.7297 99.5499 16.9747 99.5499ZM35.9484 99.3512V86.9925L36.5643 87.6283H31.3586V85.4427H43.1212V87.6283H37.9154L38.5115 86.9925V99.3512H35.9484ZM51.7666 90.1517C53.4224 90.1517 54.7007 90.5226 55.6014 91.2644C56.5022 92.0062 56.9525 93.1189 56.9525 94.6024C56.9525 96.1655 56.4558 97.351 55.4623 98.159C54.4821 98.9538 53.1111 99.3512 51.3494 99.3512H45.3687V85.4427H47.912V90.1517H51.7666ZM51.2302 97.3643C52.2236 97.3643 52.9919 97.1325 53.535 96.6688C54.0913 96.2052 54.3695 95.5297 54.3695 94.6422C54.3695 93.7679 54.098 93.1321 53.5549 92.7347C53.0118 92.3241 52.2369 92.1188 51.2302 92.1188H47.912V97.3643H51.2302ZM58.959 99.3512V85.4427H61.5023V99.3512H58.959ZM75.1881 85.4427H77.7711V99.3512H75.1881V85.4427ZM67.9954 99.3512H65.4124V85.4427H67.9954V99.3512ZM75.3868 93.3904H67.7768V91.1849H75.3868V93.3904ZM87.3622 97.1656C88.0907 97.4173 88.7331 97.4835 89.2895 97.3643C89.8458 97.245 90.3426 96.841 90.7797 96.1522L91.4552 95.0992L91.7135 94.821L96.5616 85.4427H99.1049L93.0646 96.6688C92.5745 97.6093 91.9917 98.3246 91.3161 98.8147C90.6406 99.3048 89.912 99.5764 89.1305 99.6294C88.3622 99.6956 87.5608 99.5499 86.7263 99.1922L87.3622 97.1656ZM91.6539 97.0464L85.4547 85.4427H88.2165L93.0646 95.0594L91.6539 97.0464ZM108.775 99.3512V94.9005L109.41 95.4767H105.337C104.172 95.4767 103.165 95.2846 102.317 94.9005C101.483 94.5031 100.84 93.9401 100.39 93.2116C99.9394 92.4698 99.7142 91.5823 99.7142 90.5491C99.7142 89.4762 99.9527 88.5622 100.43 87.8071C100.906 87.0389 101.582 86.456 102.456 86.0586C103.33 85.648 104.357 85.4427 105.536 85.4427H111.318V99.3512H108.775ZM99.754 99.3512L103.191 94.3839H105.794L102.476 99.3512H99.754ZM108.775 94.066V86.913L109.41 87.6283H105.615C104.556 87.6283 103.741 87.8734 103.171 88.3635C102.615 88.8403 102.337 89.5556 102.337 90.5094C102.337 91.4233 102.602 92.132 103.132 92.6354C103.675 93.1255 104.47 93.3705 105.516 93.3705H109.41L108.775 94.066Z" fill="#1AABBE"/>
<path d="M10.1418 112.59L7.2806 109.146L8.06212 108.682L11.2545 112.59H10.1418ZM5.04199 112.59V105.636H5.98247V112.59H5.04199ZM5.69106 109.49V108.682H7.92966V109.49H5.69106ZM8.1416 109.212L7.26735 109.08L10.0358 105.636H11.0558L8.1416 109.212ZM15.3542 112.656C14.683 112.656 14.078 112.506 13.5394 112.206C13.0096 111.897 12.5901 111.477 12.281 110.947C11.9719 110.408 11.8174 109.795 11.8174 109.106C11.8174 108.408 11.9719 107.795 12.281 107.265C12.5901 106.735 13.0096 106.32 13.5394 106.02C14.0693 105.719 14.6741 105.569 15.3542 105.569C16.043 105.569 16.6523 105.719 17.1821 106.02C17.7207 106.32 18.1402 106.735 18.4405 107.265C18.7496 107.795 18.9041 108.408 18.9041 109.106C18.9041 109.795 18.7496 110.408 18.4405 110.947C18.1402 111.477 17.7207 111.897 17.1821 112.206C16.6434 112.506 16.0341 112.656 15.3542 112.656ZM15.3542 111.822C15.8575 111.822 16.3034 111.712 16.692 111.49C17.0805 111.261 17.3852 110.943 17.606 110.537C17.8356 110.122 17.9504 109.645 17.9504 109.106C17.9504 108.559 17.8356 108.082 17.606 107.676C17.3852 107.269 17.0805 106.956 16.692 106.735C16.3034 106.506 15.8619 106.391 15.3674 106.391C14.8728 106.391 14.4313 106.506 14.0428 106.735C13.6542 106.956 13.3451 107.269 13.1155 107.676C12.8859 108.082 12.7711 108.559 12.7711 109.106C12.7711 109.645 12.8859 110.122 13.1155 110.537C13.3451 110.943 13.6542 111.261 14.0428 111.49C14.4313 111.712 14.8684 111.822 15.3542 111.822ZM23.7753 112.656C23.1042 112.656 22.4992 112.506 21.9605 112.206C21.4307 111.897 21.0113 111.477 20.7021 110.947C20.3931 110.408 20.2385 109.795 20.2385 109.106C20.2385 108.408 20.3931 107.795 20.7021 107.265C21.0113 106.735 21.4307 106.32 21.9605 106.02C22.4904 105.719 23.0953 105.569 23.7753 105.569C24.4641 105.569 25.0734 105.719 25.6032 106.02C26.1419 106.32 26.5614 106.735 26.8616 107.265C27.1708 107.795 27.3252 108.408 27.3252 109.106C27.3252 109.795 27.1708 110.408 26.8616 110.947C26.5614 111.477 26.1419 111.897 25.6032 112.206C25.0646 112.506 24.4553 112.656 23.7753 112.656ZM23.7753 111.822C24.2786 111.822 24.7246 111.712 25.1131 111.49C25.5017 111.261 25.8064 110.943 26.0271 110.537C26.2568 110.122 26.3715 109.645 26.3715 109.106C26.3715 108.559 26.2568 108.082 26.0271 107.676C25.8064 107.269 25.5017 106.956 25.1131 106.735C24.7246 106.506 24.2831 106.391 23.7885 106.391C23.294 106.391 22.8525 106.506 22.4639 106.735C22.0754 106.956 21.7663 107.269 21.5366 107.676C21.3071 108.082 21.1922 108.559 21.1922 109.106C21.1922 109.645 21.3071 110.122 21.5366 110.537C21.7663 110.943 22.0754 111.261 22.4639 111.49C22.8525 111.712 23.2896 111.822 23.7753 111.822ZM29.3353 112.59V105.636H30.289L33.4416 110.974H33.0442L36.2498 105.636H37.124V112.59H36.263V106.709L36.4352 106.788L33.4416 111.742H33.0177L29.9976 106.735L30.1963 106.695V112.59H29.3353ZM44.5689 112.14V106.457H41.2176L41.1381 108.007C41.1205 108.474 41.0896 108.934 41.0454 109.384C41.0101 109.835 40.9439 110.249 40.8467 110.629C40.7584 111 40.6304 111.305 40.4626 111.543C40.2948 111.773 40.0784 111.905 39.8135 111.941L38.873 111.769C39.1468 111.778 39.372 111.68 39.5486 111.477C39.7252 111.265 39.8621 110.978 39.9592 110.616C40.0564 110.254 40.127 109.844 40.1711 109.384C40.2154 108.917 40.2506 108.44 40.2771 107.954L40.3698 105.636H45.5094V112.14H44.5689ZM38.5816 114.272V111.769H46.5956V114.272H45.7081V112.59H39.4691V114.272H38.5816ZM48.5476 115.226C48.2209 115.226 47.9074 115.173 47.6071 115.067C47.3157 114.961 47.064 114.802 46.8521 114.59L47.2892 113.888C47.4658 114.056 47.6557 114.184 47.8588 114.272C48.0708 114.369 48.3048 114.418 48.5609 114.418C48.8699 114.418 49.1348 114.329 49.3556 114.153C49.5852 113.985 49.8016 113.685 50.0047 113.252L50.4551 112.232L50.561 112.087L53.4222 105.636H54.3495L50.8657 113.424C50.6714 113.875 50.4551 114.232 50.2166 114.497C49.9871 114.762 49.7354 114.948 49.4616 115.054C49.1878 115.169 48.8832 115.226 48.5476 115.226ZM50.4021 112.789L47.1965 105.636H48.1767L51.0114 112.02L50.4021 112.789ZM60.9142 112.59L58.053 109.146L58.8345 108.682L62.0269 112.59H60.9142ZM55.8147 112.59V105.636H56.7552V112.59H55.8147ZM56.4638 109.49V108.682H58.7021V109.49H56.4638ZM58.914 109.212L58.0398 109.08L60.8082 105.636H61.8282L58.914 109.212ZM70.8861 112.669C70.8861 112.669 70.8679 112.669 70.8331 112.669C70.7975 112.669 70.7619 112.669 70.7271 112.669C70.7006 112.669 70.6783 112.669 70.6609 112.669C69.2833 112.66 68.2104 112.347 67.4421 111.729C66.6738 111.11 66.2897 110.232 66.2897 109.093C66.2897 107.971 66.6738 107.106 67.4421 106.497C68.2186 105.878 69.3098 105.565 70.7139 105.556C70.7222 105.556 70.7404 105.556 70.7669 105.556C70.8017 105.556 70.8331 105.556 70.8596 105.556C70.8861 105.556 70.9035 105.556 70.9126 105.556C72.325 105.565 73.4244 105.878 74.2109 106.497C74.9966 107.106 75.3898 107.971 75.3898 109.093C75.3898 110.241 74.9924 111.124 74.1976 111.742C73.4111 112.361 72.3076 112.669 70.8861 112.669ZM70.8728 111.848C71.6585 111.848 72.3167 111.742 72.8465 111.53C73.3764 111.309 73.7779 110.996 74.0519 110.59C74.3251 110.183 74.4626 109.685 74.4626 109.093C74.4626 108.519 74.3251 108.033 74.0519 107.636C73.7779 107.229 73.3764 106.921 72.8465 106.709C72.3167 106.497 71.6585 106.391 70.8728 106.391C70.8637 106.391 70.8372 106.391 70.7934 106.391C70.7578 106.391 70.7354 106.391 70.7271 106.391C69.9589 106.391 69.3139 106.501 68.7932 106.722C68.2716 106.934 67.8792 107.238 67.6143 107.636C67.3494 108.033 67.2169 108.519 67.2169 109.093C67.2169 109.676 67.3494 110.17 67.6143 110.576C67.8875 110.983 68.2849 111.296 68.8064 111.517C69.3272 111.729 69.9671 111.839 70.7271 111.848C70.7445 111.848 70.771 111.848 70.8066 111.848C70.8414 111.848 70.8637 111.848 70.8728 111.848ZM70.3695 115.16V102.761H71.2835V115.16H70.3695ZM80.2396 112.656C79.569 112.656 78.9638 112.506 78.4248 112.206C77.895 111.897 77.4761 111.477 77.1664 110.947C76.8576 110.408 76.7028 109.795 76.7028 109.106C76.7028 108.408 76.8576 107.795 77.1664 107.265C77.4761 106.735 77.895 106.32 78.4248 106.02C78.9547 105.719 79.5599 105.569 80.2396 105.569C80.9284 105.569 81.5377 105.719 82.0675 106.02C82.6065 106.32 83.0262 106.735 83.3259 107.265C83.6355 107.795 83.7895 108.408 83.7895 109.106C83.7895 109.795 83.6355 110.408 83.3259 110.947C83.0262 111.477 82.6065 111.897 82.0675 112.206C81.5294 112.506 80.9201 112.656 80.2396 112.656ZM80.2396 111.822C80.7429 111.822 81.1891 111.712 81.5774 111.49C81.9665 111.261 82.2712 110.943 82.4914 110.537C82.7216 110.122 82.8358 109.645 82.8358 109.106C82.8358 108.559 82.7216 108.082 82.4914 107.676C82.2712 107.269 81.9665 106.956 81.5774 106.735C81.1891 106.506 80.7479 106.391 80.2528 106.391C79.7586 106.391 79.3173 106.506 78.9282 106.735C78.5399 106.956 78.2311 107.269 78.001 107.676C77.7716 108.082 77.6566 108.559 77.6566 109.106C77.6566 109.645 77.7716 110.122 78.001 110.537C78.2311 110.943 78.5399 111.261 78.9282 111.49C79.3173 111.712 79.7544 111.822 80.2396 111.822ZM85.7996 112.59V105.636H86.7401V108.709H91.1246V105.636H92.0651V112.59H91.1246V109.517H86.7401V112.59H85.7996ZM99.507 112.14V106.457H96.1557L96.0762 108.007C96.0588 108.474 96.0274 108.934 95.9835 109.384C95.9479 109.835 95.8817 110.249 95.7848 110.629C95.6962 111 95.5687 111.305 95.4007 111.543C95.2326 111.773 95.0165 111.905 94.7516 111.941L93.8111 111.769C94.0851 111.778 94.3103 111.68 94.4867 111.477C94.663 111.265 94.8004 110.978 94.8973 110.616C94.9942 110.254 95.0654 109.844 95.1092 109.384C95.1531 108.917 95.1887 108.44 95.2152 107.954L95.3079 105.636H100.447V112.14H99.507ZM93.5197 114.272V111.769H101.534V114.272H100.646V112.59H94.4072V114.272H93.5197ZM103.486 115.226C103.159 115.226 102.846 115.173 102.545 115.067C102.254 114.961 102.002 114.802 101.79 114.59L102.227 113.888C102.404 114.056 102.594 114.184 102.797 114.272C103.009 114.369 103.243 114.418 103.499 114.418C103.808 114.418 104.073 114.329 104.294 114.153C104.523 113.985 104.74 113.685 104.943 113.252L105.393 112.232L105.499 112.087L108.36 105.636H109.288L105.804 113.424C105.609 113.875 105.393 114.232 105.155 114.497C104.925 114.762 104.674 114.948 104.4 115.054C104.126 115.169 103.821 115.226 103.486 115.226ZM105.34 112.789L102.135 105.636H103.115L105.95 112.02L105.34 112.789Z" fill="#203F7D"/>
</svg>
