<svg width="109" height="86" viewBox="0 0 109 86" fill="none" xmlns="http://www.w3.org/2000/svg">
<path d="M24.945 77.5166C24.9649 76.3016 24.706 75.3655 24.1284 74.6684C23.5707 73.9912 22.7342 73.6327 21.6387 73.6327C21.0611 73.6327 20.5632 73.7522 20.1449 73.9713C19.7267 74.1705 19.3682 74.4692 19.0694 74.8078C18.7906 75.1663 18.5715 75.5846 18.4121 76.0427C18.2528 76.5207 18.1532 76.9987 18.1333 77.5166H24.945ZM108.996 85.0055C108.996 85.0653 108.976 85.125 108.937 85.1848C108.897 85.2445 108.837 85.2844 108.757 85.3242C108.636 85.3741 108.509 85.4076 108.379 85.4238C108.22 85.4437 108.02 85.4437 107.781 85.4437C107.522 85.4437 107.323 85.4437 107.164 85.4238C107.005 85.4039 106.865 85.384 106.746 85.3441C106.644 85.3181 106.549 85.2705 106.467 85.2047C106.407 85.1449 106.347 85.0852 106.288 85.0055L100.99 78.0544V85.0055C100.99 85.0852 100.97 85.1449 100.95 85.2047C100.91 85.2445 100.85 85.2844 100.77 85.3242C100.671 85.364 100.551 85.4039 100.412 85.4238C100.253 85.4437 100.073 85.4437 99.8344 85.4437C99.6153 85.4437 99.436 85.4437 99.2767 85.4238C99.1593 85.4083 99.0451 85.3747 98.9381 85.3242C98.8385 85.2844 98.7787 85.2445 98.7588 85.2047C98.7184 85.1463 98.6975 85.0766 98.6991 85.0055V67.7372C98.6991 67.6575 98.719 67.5977 98.7588 67.538C98.7787 67.4782 98.8385 67.4384 98.9381 67.3986C99.0177 67.3587 99.1372 67.3388 99.2767 67.3189C99.6534 67.2687 100.035 67.2687 100.412 67.3189C100.551 67.3388 100.671 67.3587 100.77 67.3986C100.85 67.4384 100.91 67.4782 100.95 67.538C100.97 67.5977 100.99 67.6575 100.99 67.7372V77.7357L105.73 72.5372C105.81 72.4377 105.889 72.358 105.969 72.2982C106.059 72.2294 106.16 72.1756 106.268 72.1389C106.387 72.0991 106.527 72.0791 106.686 72.0592C106.845 72.0393 107.025 72.0393 107.244 72.0393C107.483 72.0393 107.682 72.0393 107.841 72.0592C108 72.0791 108.12 72.0991 108.22 72.1389C108.319 72.1588 108.379 72.1987 108.439 72.2584C108.459 72.2982 108.498 72.3779 108.498 72.4576C108.498 72.5771 108.459 72.6767 108.399 72.7962C108.339 72.8958 108.239 73.0352 108.1 73.1746L103.559 77.7357L108.658 84.3482C108.777 84.4877 108.857 84.6271 108.917 84.7267C108.976 84.8263 108.996 84.9059 108.996 85.0055ZM97.2053 85.0055C97.2053 85.0852 97.1853 85.1449 97.1455 85.2047C97.1057 85.2445 97.0459 85.2844 96.9662 85.3242C96.8667 85.364 96.7671 85.4039 96.6077 85.4238C96.4683 85.4437 96.2691 85.4437 96.05 85.4437C95.831 85.4437 95.6318 85.4437 95.4924 85.4238C95.3681 85.4108 95.247 85.3771 95.1339 85.3242C95.0682 85.2939 95.0078 85.2536 94.9546 85.2047C94.9142 85.1463 94.8932 85.0766 94.8948 85.0055V77.6759C94.8948 76.9589 94.855 76.3813 94.7355 75.9431C94.616 75.5049 94.4567 75.1265 94.2376 74.8078C94.0411 74.4943 93.7572 74.2451 93.421 74.0908C93.0824 73.9315 92.684 73.8319 92.2458 73.8319C91.6682 73.8319 91.0906 74.051 90.513 74.4493C89.9354 74.8676 89.3379 75.4651 88.7005 76.2419V85.0055C88.7005 85.0852 88.6806 85.1449 88.6408 85.2047C88.6009 85.2445 88.5412 85.2844 88.4615 85.3242C88.3819 85.364 88.2624 85.4039 88.1229 85.4238C87.9636 85.4437 87.7843 85.4437 87.5453 85.4437C87.3262 85.4437 87.147 85.4437 86.9876 85.4238C86.8646 85.4052 86.7442 85.3717 86.6291 85.3242C86.5635 85.2939 86.5031 85.2536 86.4499 85.2047C86.43 85.1449 86.41 85.0852 86.41 85.0055V72.4775C86.41 72.3978 86.41 72.3381 86.4499 72.2783C86.4886 72.2176 86.5439 72.1693 86.6092 72.1389C86.6889 72.0991 86.8084 72.0791 86.9279 72.0592C87.0673 72.0393 87.2266 72.0393 87.4457 72.0393C87.6449 72.0393 87.8242 72.0393 87.9636 72.0592C88.0831 72.0791 88.2026 72.0991 88.2624 72.1389C88.342 72.1787 88.4018 72.2385 88.4416 72.2783C88.4615 72.3381 88.4814 72.3978 88.4814 72.4775V74.1306C89.1786 73.3339 89.8956 72.7563 90.5927 72.3978C91.2898 72.0393 92.0068 71.8401 92.7039 71.8401C93.5405 71.8401 94.2575 71.9796 94.8152 72.2783C95.3928 72.5572 95.8509 72.9356 96.2094 73.4136C96.5679 73.8717 96.8069 74.4294 96.9662 75.0668C97.1256 75.7041 97.2053 76.461 97.2053 77.3572V85.0055ZM82.4266 79.3091H80.4548C79.8174 79.3091 79.2796 79.349 78.8016 79.4486C78.3435 79.5681 77.9651 79.7274 77.6464 79.9266C77.3658 80.118 77.1394 80.3788 76.9891 80.6835C76.8298 80.9822 76.77 81.3208 76.77 81.6992C76.77 82.3366 76.9692 82.8544 77.3875 83.2528C77.8057 83.6312 78.3833 83.8304 79.1203 83.8304C79.7178 83.8304 80.2755 83.6711 80.7933 83.3723C81.3112 83.0536 81.849 82.5955 82.4266 81.9582V79.3091ZM84.6971 85.0254C84.6971 85.125 84.6772 85.2246 84.5976 85.2644C84.5179 85.3242 84.4183 85.364 84.2789 85.4039C83.9023 85.4563 83.5202 85.4563 83.1436 85.4039C83.0284 85.3814 82.9196 85.3338 82.8249 85.2644C82.7652 85.2246 82.7253 85.125 82.7253 85.0254V83.7706C82.1676 84.3482 81.5701 84.8063 80.8929 85.125C80.2157 85.4636 79.5186 85.623 78.7618 85.623C78.1045 85.623 77.507 85.5433 76.9692 85.364C76.4314 85.1848 75.9733 84.9458 75.5949 84.6271C75.2165 84.2885 74.9376 83.8902 74.7185 83.4321C74.5194 82.954 74.4198 82.4163 74.4198 81.7988C74.4198 81.1017 74.5592 80.4843 74.838 79.9664C75.1368 79.4486 75.5352 79.0104 76.0729 78.6718C76.6107 78.3332 77.2879 78.0743 78.0647 77.895C78.8414 77.7357 79.7178 77.6361 80.6938 77.6361H82.4266V76.6601C82.4266 76.1821 82.3668 75.7439 82.2672 75.3854C82.1875 75.0405 82.0154 74.7238 81.7693 74.4692C81.5304 74.206 81.229 74.0073 80.8929 73.8916C80.5344 73.7721 80.0763 73.7124 79.5585 73.7124C78.9809 73.7124 78.4829 73.7721 78.0248 73.9115C77.5667 74.051 77.1883 74.1904 76.8497 74.3696C76.4912 74.529 76.2123 74.6684 75.9933 74.8078C75.7542 74.9472 75.5949 75.007 75.4754 75.007C75.4156 75.007 75.336 74.9871 75.2962 74.9472C75.2364 74.9074 75.1766 74.8676 75.1368 74.7879C75.096 74.6927 75.0692 74.592 75.0571 74.4891C75.0372 74.3896 75.0173 74.2501 75.0173 74.1107C75.0173 73.8916 75.0372 73.6925 75.0771 73.573C75.097 73.4335 75.1766 73.314 75.3161 73.1746C75.4356 73.0551 75.6547 72.9157 75.9534 72.7563C76.2522 72.597 76.6107 72.4576 77.009 72.3182C77.4074 72.1787 77.8456 72.0592 78.3236 71.9796C78.8016 71.88 79.2796 71.8401 79.7576 71.8401C80.6539 71.8401 81.4307 71.9397 82.0481 72.1588C82.6855 72.358 83.2033 72.6567 83.5818 73.0551C83.9801 73.4534 84.259 73.9315 84.4382 74.529C84.6175 75.1066 84.6971 75.7838 84.6971 76.5606V85.0254ZM70.9342 80.3249C70.9342 79.7872 70.8347 79.3092 70.6753 78.9108C70.4961 78.4925 70.257 78.1539 69.9185 77.8751C69.5799 77.5963 69.1815 77.3971 68.6836 77.2377C68.1856 77.0983 67.5483 77.0187 66.8113 77.0187H63.9432V83.3723H67.4089C67.9666 83.3723 68.4446 83.3125 68.8429 83.193C69.2612 83.0536 69.6197 82.8544 69.9384 82.5955C70.2371 82.3565 70.4961 82.0378 70.6554 81.6594C70.8347 81.281 70.9342 80.8229 70.9342 80.3249ZM69.8388 72.119C69.8388 71.6808 69.779 71.3024 69.6595 70.9439C69.54 70.5853 69.3409 70.2866 69.0819 70.0476C68.823 69.7887 68.4844 69.6094 68.0661 69.47C67.6479 69.3505 67.1101 69.2907 66.413 69.2907H63.9432V75.1265H66.6719C67.2894 75.1265 67.7873 75.0468 68.1657 74.8676C68.5442 74.7082 68.8628 74.4891 69.1218 74.2302C69.3608 73.9514 69.5599 73.6327 69.6595 73.2543C69.779 72.8958 69.8388 72.5173 69.8388 72.119ZM73.4438 80.1855C73.4438 80.7631 73.3841 81.281 73.2447 81.759C73.0853 82.237 72.8861 82.6752 72.6272 83.0536C72.3683 83.432 72.0496 83.7507 71.6911 84.0495C71.3127 84.3283 70.9143 84.5873 70.4562 84.7665C69.9782 84.9657 69.5002 85.125 68.9624 85.2047C68.4446 85.3043 67.847 85.364 67.1699 85.364H62.4494C62.2503 85.364 62.0511 85.2844 61.8519 85.1449C61.6527 85.0055 61.5731 84.7466 61.5731 84.3881V68.3148C61.5731 67.9363 61.6527 67.6973 61.8519 67.538C62.0511 67.3986 62.2503 67.3388 62.4494 67.3388H66.5524C67.628 67.3388 68.5043 67.4384 69.2014 67.6376C69.8786 67.8367 70.4562 68.1355 70.9143 68.5339C71.3724 68.9123 71.7309 69.4102 71.95 69.9679C72.189 70.5256 72.3085 71.1829 72.3085 71.88C72.3085 72.3182 72.2488 72.7165 72.1492 73.1149C72.0496 73.5132 71.8903 73.8717 71.6911 74.1904C71.4919 74.529 71.2529 74.8078 70.9542 75.0867C70.6554 75.3456 70.2969 75.5448 69.9185 75.724C70.6611 75.852 71.3552 76.1788 71.9269 76.6698C72.4985 77.1608 72.9264 77.7976 73.165 78.5125C73.3642 79.0104 73.4438 79.5681 73.4438 80.1855ZM12.1382 76.1821C12.1382 75.2062 12.0187 74.29 11.7796 73.4534C11.5406 72.6169 11.1622 71.88 10.6444 71.2825C10.1101 70.6585 9.44321 70.1618 8.69245 69.8285C7.89576 69.4899 6.87997 69.3305 5.6451 69.3305H3.19526V83.3524H5.66501C6.82022 83.3524 7.79617 83.213 8.57295 82.9142C9.36965 82.6354 10.0269 82.1972 10.5647 81.5997C11.0825 81.0021 11.4809 80.2652 11.7398 79.3689C12.0187 78.4726 12.1382 77.3971 12.1382 76.1821ZM14.6677 76.0825C14.6677 77.6361 14.4685 79.0104 14.0701 80.1656C13.6718 81.3407 13.0743 82.2968 12.3174 83.0735C11.5606 83.8304 10.6045 84.408 9.48915 84.7864C8.39369 85.1649 7.05923 85.364 5.50568 85.364H1.70146C1.48237 85.364 1.28319 85.2844 1.08402 85.1449C0.904763 85.0055 0.805176 84.7466 0.805176 84.3881V68.3148C0.805176 67.9363 0.904763 67.6973 1.08402 67.538C1.28319 67.3986 1.48237 67.3388 1.70146 67.3388H5.78452C7.33807 67.3388 8.65262 67.538 9.72816 67.9363C10.8037 68.3347 11.7199 68.9123 12.4369 69.6891C13.1739 70.4459 13.7316 71.3621 14.0901 72.4377C14.4685 73.5132 14.6677 74.7282 14.6677 76.0825ZM60.0793 73.2941C60.0793 73.4933 60.0793 73.6725 60.0594 73.812C60.0594 73.9514 60.0394 74.051 60.0195 74.1306C59.9797 74.2103 59.9398 74.2701 59.9199 74.3099C59.8602 74.3696 59.8203 74.3696 59.7407 74.3696C59.661 74.3696 59.5614 74.3696 59.4618 74.3099C59.3622 74.2701 59.2427 74.2302 59.1033 74.1904C58.9639 74.1506 58.8245 74.1107 58.6452 74.0709C58.2421 73.9676 57.8165 73.9955 57.4303 74.1505C57.1913 74.2501 56.9722 74.4095 56.7132 74.6087C56.4742 74.8277 56.2153 75.1066 55.9365 75.4651C55.6775 75.8236 55.3788 76.2618 55.0601 76.7597V85.0055C55.0601 85.0852 55.0402 85.1449 55.0003 85.2047C54.9605 85.2445 54.9008 85.2844 54.8211 85.3242C54.7414 85.364 54.6219 85.4039 54.4626 85.4238C54.3232 85.4437 54.124 85.4437 53.9049 85.4437C53.6858 85.4437 53.4866 85.4437 53.3472 85.4238C53.223 85.4108 53.1018 85.3771 52.9887 85.3242C52.8891 85.2844 52.8293 85.2445 52.8094 85.2047C52.769 85.1463 52.7481 85.0766 52.7497 85.0055V72.4775C52.7497 72.3978 52.7696 72.3381 52.7895 72.2783C52.8293 72.2385 52.8891 72.1787 52.9688 72.1389C53.0702 72.0959 53.1777 72.069 53.2874 72.0592C53.407 72.0393 53.5862 72.0393 53.8053 72.0393C54.0045 72.0393 54.1837 72.0393 54.3032 72.0592C54.4427 72.0791 54.5422 72.0991 54.6219 72.1389C54.7016 72.1787 54.7613 72.2385 54.7813 72.2783C54.8211 72.3381 54.841 72.3978 54.841 72.4775V74.29C55.1796 73.792 55.4983 73.3937 55.797 73.075C56.0958 72.7563 56.3946 72.4974 56.6535 72.3182C56.9323 72.1389 57.1913 72.0194 57.4502 71.9397C57.729 71.88 57.9879 71.8401 58.2469 71.8401C58.3863 71.8401 58.5257 71.8601 58.6651 71.8601C58.8245 71.88 58.9838 71.8999 59.1432 71.9397C59.3224 71.9796 59.4618 72.0194 59.6013 72.0592C59.7407 72.119 59.8403 72.1588 59.8801 72.1986C59.9398 72.2584 59.9797 72.2982 59.9996 72.3381C60.0195 72.3779 60.0394 72.4377 60.0394 72.4974C60.0594 72.5771 60.0793 72.6567 60.0793 72.7763V73.2941ZM51.1364 85.0055C51.1364 85.0852 51.1165 85.1449 51.0766 85.2047C51.0368 85.2445 50.977 85.2844 50.8974 85.3242C50.8177 85.364 50.6982 85.4039 50.5388 85.4238C50.3994 85.4238 50.2003 85.4437 49.9812 85.4437C49.7422 85.4437 49.5629 85.4238 49.4235 85.4238C49.2993 85.4108 49.1781 85.3771 49.065 85.3242C48.9654 85.2844 48.9056 85.2445 48.8857 85.2047C48.8453 85.1463 48.8244 85.0766 48.826 85.0055V72.4775C48.826 72.3978 48.8459 72.358 48.8857 72.2982C48.9056 72.2385 48.9654 72.1787 49.065 72.1588C49.1446 72.119 49.2641 72.0791 49.4235 72.0592C49.5629 72.0592 49.7422 72.0393 49.9812 72.0393C50.2003 72.0393 50.3994 72.0592 50.5388 72.0592C50.6982 72.0791 50.8177 72.119 50.8974 72.1588C50.977 72.1787 51.0368 72.2385 51.0766 72.2982C51.1165 72.358 51.1364 72.3978 51.1364 72.4775V85.0055ZM51.3953 68.6932C51.3953 69.231 51.2957 69.6094 51.0965 69.8086C50.8774 69.9878 50.499 70.0874 49.9613 70.0874C49.4235 70.0874 49.0451 69.9878 48.8459 69.8086C48.6467 69.6094 48.5471 69.2509 48.5471 68.733C48.5471 68.1953 48.6467 67.8168 48.8658 67.6177C49.065 67.4384 49.4434 67.3388 49.9812 67.3388C50.5189 67.3388 50.8974 67.4185 51.0965 67.6177C51.2957 67.8168 51.3953 68.1753 51.3953 68.6932ZM47.1728 85.0055C47.1728 85.0852 47.1529 85.1449 47.1131 85.2047C47.0732 85.2445 47.0135 85.2844 46.9338 85.3242C46.8541 85.364 46.7346 85.4039 46.5753 85.4238C46.4359 85.4437 46.2566 85.4437 46.0176 85.4437C45.7985 85.4437 45.5993 85.4437 45.4599 85.4238C45.3357 85.4108 45.2145 85.3771 45.1014 85.3242C45.0276 85.2983 44.9598 85.2577 44.9022 85.2047C44.8823 85.1449 44.8624 85.0852 44.8624 85.0055V77.3971C44.8624 76.8593 44.8026 76.3813 44.723 75.9431C44.6234 75.5049 44.484 75.1265 44.2649 74.8078C44.0783 74.5007 43.8091 74.2522 43.4881 74.0908C43.1415 73.919 42.7596 73.8304 42.3727 73.8319C41.835 73.8319 41.3171 74.051 40.7793 74.4493C40.2416 74.8676 39.664 75.4651 39.0266 76.2419V85.0055C39.0266 85.0852 39.0067 85.1449 38.9669 85.2047C38.927 85.2445 38.8673 85.2844 38.7677 85.3242C38.688 85.364 38.5685 85.4039 38.4291 85.4238C38.2697 85.4437 38.0905 85.4437 37.8515 85.4437C37.6523 85.4437 37.4731 85.4437 37.3137 85.4238C37.1895 85.4108 37.0683 85.3771 36.9552 85.3242C36.8556 85.2844 36.7959 85.2445 36.7759 85.2047C36.7355 85.1463 36.7146 85.0766 36.7162 85.0055V77.3971C36.7162 76.8593 36.6764 76.3813 36.5768 75.9431C36.4573 75.5049 36.3178 75.1265 36.0988 74.8078C35.8996 74.4891 35.6407 74.2501 35.3419 74.0908C35.0232 73.9315 34.6647 73.8319 34.2265 73.8319C33.6888 73.8319 33.1709 74.051 32.6331 74.4493C32.0954 74.8676 31.4978 75.4651 30.8804 76.2419V85.0055C30.8804 85.0852 30.8605 85.1449 30.8207 85.2047C30.7808 85.2445 30.7211 85.2844 30.6414 85.3242C30.5418 85.364 30.4422 85.4039 30.2829 85.4238C30.1235 85.4437 29.9443 85.4437 29.7053 85.4437C29.4862 85.4437 29.3069 85.4437 29.1476 85.4238C29.0303 85.4083 28.9161 85.3747 28.809 85.3242C28.7094 85.2844 28.6497 85.2445 28.6297 85.2047C28.5893 85.1463 28.5684 85.0766 28.57 85.0055V72.4775C28.57 72.3978 28.5899 72.3381 28.6098 72.2783C28.6497 72.2385 28.6895 72.1787 28.7692 72.1389C28.8688 72.0991 28.9683 72.0791 29.1078 72.0592C29.2273 72.0393 29.4065 72.0393 29.6057 72.0393C29.8248 72.0393 29.9841 72.0393 30.1235 72.0592C30.263 72.0791 30.3626 72.0991 30.4422 72.1389C30.502 72.1787 30.5617 72.2385 30.6016 72.2783C30.6215 72.3381 30.6414 72.3978 30.6414 72.4775V74.1306C31.3584 73.3339 32.0356 72.7563 32.6929 72.3978C33.3701 72.0393 34.0274 71.8401 34.7045 71.8401C35.2423 71.8401 35.7004 71.8999 36.1187 72.0194C36.5369 72.1389 36.8955 72.3182 37.2141 72.5372C37.5129 72.7563 37.7917 73.0153 38.0108 73.314C38.2299 73.6128 38.4291 73.9514 38.5685 74.3298C38.9868 73.8717 39.3851 73.4933 39.7636 73.1746C40.142 72.8559 40.5005 72.597 40.859 72.3978C41.1976 72.1987 41.5362 72.0592 41.8748 71.9796C42.1935 71.88 42.5321 71.8401 42.8707 71.8401C43.6674 71.8401 44.3445 71.9796 44.9022 72.2783C45.44 72.5572 45.8782 72.9356 46.2367 73.4136C46.5753 73.8717 46.8143 74.4294 46.9537 75.0668C47.0931 75.7041 47.1728 76.3813 47.1728 77.0784V85.0055ZM27.2554 78.1938C27.2554 78.5523 27.1559 78.8112 26.9766 78.9706C26.7973 79.1299 26.5982 79.2096 26.3592 79.2096H18.1333C18.1333 79.9067 18.213 80.5241 18.3524 81.0818C18.4918 81.6395 18.7109 82.1175 19.0495 82.5158C19.3682 82.9142 19.7864 83.213 20.3043 83.4321C20.8421 83.6511 21.4595 83.7507 22.2164 83.7507C23.1675 83.7661 24.1131 83.604 25.0048 83.2727C25.3434 83.1532 25.6421 83.0536 25.8413 82.954C26.0604 82.8544 26.2397 82.8146 26.3392 82.8146C26.399 82.8146 26.4787 82.8146 26.5185 82.8544C26.5783 82.8943 26.5982 82.9341 26.638 83.0138C26.6579 83.0735 26.6978 83.1532 26.6978 83.2727C26.7177 83.3922 26.7177 83.5316 26.7177 83.691C26.7177 83.8304 26.7177 83.93 26.6978 84.0096C26.6978 84.1092 26.6978 84.1889 26.6778 84.2487C26.6515 84.3808 26.5813 84.5001 26.4787 84.5873C26.4189 84.647 26.2795 84.7267 26.0206 84.8462C25.7816 84.9657 25.443 85.0852 25.0446 85.1848C24.6463 85.3043 24.1882 85.4039 23.6703 85.4835C23.1325 85.5831 22.5749 85.623 21.9773 85.623C20.9616 85.623 20.0454 85.4835 19.2686 85.1848C18.4918 84.9059 17.8544 84.4678 17.3167 83.9101C16.7789 83.3325 16.3806 82.6354 16.1216 81.7789C15.8428 80.9225 15.7034 79.9266 15.7034 78.7913C15.7034 77.7158 15.8627 76.7597 16.1416 75.8834C16.4204 75.0269 16.8187 74.3099 17.3366 73.7124C17.8544 73.0949 18.4918 72.6568 19.2487 72.3182C19.9856 71.9995 20.8221 71.8401 21.7383 71.8401C22.7143 71.8401 23.5508 71.9995 24.2479 72.3182C24.945 72.6368 25.5027 73.0551 25.9608 73.5929C26.399 74.1306 26.7177 74.7481 26.9368 75.4651C27.1359 76.202 27.2554 76.9589 27.2554 77.7755V78.1938Z" fill="#D22023"/>
<path fill-rule="evenodd" clip-rule="evenodd" d="M54.9 3.88236C69.9177 3.88236 82.1071 16.0718 82.1071 31.0895C82.1071 46.1072 69.9177 58.2966 54.9 58.2966C39.8823 58.2966 27.6929 46.1072 27.6929 31.0895C27.6929 16.0718 39.8823 3.88236 54.9 3.88236ZM64.7192 30.5318C64.0823 30.5331 63.4519 30.6599 62.864 30.9048C62.2761 31.1497 61.7422 31.5081 61.2928 31.9593C60.3851 32.8707 59.8767 34.1054 59.8793 35.3916C59.882 36.6779 60.3955 37.9104 61.3069 38.8181C62.2183 39.7258 63.4529 40.2342 64.7392 40.2316C66.0254 40.2289 67.258 39.7154 68.1656 38.804C69.0733 37.8926 69.5817 36.658 69.5791 35.3717C69.5764 34.0855 69.0629 32.8529 68.1515 31.9453C67.2402 31.0376 66.0055 30.5292 64.7192 30.5318ZM64.7192 26.7674C63.5043 26.7674 62.3491 27.0264 61.3134 27.4844C61.2165 27.5244 61.1114 27.5398 61.0071 27.5294C60.9029 27.5189 60.8029 27.483 60.7159 27.4247C60.6289 27.3695 60.5576 27.2928 60.5088 27.2022C60.46 27.1115 60.4353 27.0098 60.437 26.9068V18.8204C60.437 18.4619 60.1582 18.183 59.7997 18.183H56.6527C56.3141 18.183 56.0353 18.4619 56.0353 18.8204V42.4822C56.0353 42.8407 56.3141 43.1196 56.6527 43.1196H60.437V42.8407C61.6918 43.5777 63.1657 43.996 64.7192 43.996C67.0031 43.996 69.1937 43.0901 70.8105 41.477C72.4272 39.864 73.3382 37.6755 73.3435 35.3916C73.3435 30.6314 69.4795 26.7674 64.7192 26.7674ZM45.0608 30.5318C45.6977 30.5305 46.3286 30.6546 46.9175 30.8972C47.5064 31.1397 48.0418 31.4958 48.4931 31.9453C48.9444 32.3947 49.3027 32.9286 49.5477 33.5165C49.7926 34.1044 49.9193 34.7348 49.9206 35.3717C49.9219 36.0086 49.7978 36.6395 49.5553 37.2285C49.3128 37.8174 48.9566 38.3527 48.5072 38.804C48.0578 39.2553 47.5238 39.6136 46.9359 39.8586C46.348 40.1035 45.7176 40.2303 45.0807 40.2316C43.7944 40.2342 42.5598 39.7258 41.6484 38.8181C40.737 37.9104 40.2235 36.6779 40.2209 35.3916C40.2182 34.1054 40.7267 32.8707 41.6343 31.9593C42.542 31.0479 43.7745 30.5344 45.0608 30.5318ZM45.0608 26.7674C46.2758 26.7674 47.4509 27.0264 48.4866 27.4844C48.6858 27.5641 48.9049 27.5442 49.0841 27.4247C49.2634 27.3052 49.363 27.1259 49.363 26.9068V18.8204C49.363 18.4619 49.6418 18.183 50.0003 18.183H53.1473C53.4858 18.183 53.7647 18.4619 53.7647 18.8204V42.4822C53.7647 42.8407 53.4858 43.1196 53.1473 43.1196H49.363V42.8407C48.055 43.5952 46.5716 43.9922 45.0617 43.992C43.5518 43.9919 42.0684 43.5944 40.7607 42.8396C39.453 42.0849 38.3668 40.9993 37.6113 39.692C36.8558 38.3847 36.4575 36.9016 36.4565 35.3916C36.4565 30.6314 40.3005 26.7674 45.0608 26.7674ZM54.9 0.117981C72.009 0.117981 85.8715 13.9805 85.8715 31.0895C85.8715 48.1985 72.009 62.061 54.9 62.061C37.791 62.061 23.9285 48.1985 23.9285 31.0895C23.9285 13.9805 37.791 0.117981 54.9 0.117981Z" fill="#D22023"/>
</svg>
