<svg width="133" height="32" viewBox="0 0 133 32" fill="none" xmlns="http://www.w3.org/2000/svg">
<mask id="mask0_391_3245" style="mask-type:luminance" maskUnits="userSpaceOnUse" x="0" y="0" width="133" height="32">
<path d="M132.866 0H0V31.7143H132.866V0Z" fill="white"/>
</mask>
<g mask="url(#mask0_391_3245)">
<path fill-rule="evenodd" clip-rule="evenodd" d="M39.8319 19.2839C39.8319 23.1716 42.2437 25.8105 45.8605 25.8105C49.4752 25.8105 52.0312 23.0755 52.0312 19.2358C52.0312 15.4924 49.4291 12.7085 45.8605 12.7085C42.292 12.7085 39.8319 15.3962 39.8319 19.2839ZM39.9293 9.68488C41.5686 7.90859 44.0763 6.85288 47.0664 6.85288C53.7708 6.85288 58.6456 12.0878 58.6456 19.2854C58.6456 26.483 53.7746 31.7143 47.0701 31.7143C43.9804 31.7143 41.4244 30.6141 39.7843 28.6906C39.6401 30.4662 38.3376 31.7143 36.6492 31.7143C34.8166 31.7143 33.4182 30.2746 33.4182 28.4029V3.31214C33.4182 1.44041 34.8166 0 36.6975 0C38.5309 0 39.9293 1.39232 39.9293 3.31214V9.68488ZM125.245 18.18L132.094 26.7227C132.625 27.3952 132.866 28.0181 132.866 28.7387C132.866 30.418 131.56 31.7142 129.925 31.7142C128.911 31.7142 128.139 31.328 127.513 30.5142L119.361 20.5312C118.637 19.5716 118.348 18.8999 118.348 18.18C118.348 17.364 118.688 16.6923 119.506 15.7801L127.126 7.86413C127.706 7.22641 128.529 6.86095 129.393 6.85577C131.081 6.85577 132.383 8.10383 132.383 9.73586C132.383 10.5518 132.046 11.3198 131.322 12.0396L125.245 18.18ZM114.056 0.021508C112.175 0.021508 110.777 1.46192 110.777 3.33364V28.4029C110.777 30.2746 112.175 31.7143 114.056 31.7143C115.889 31.7143 117.288 30.3227 117.288 28.4029V3.33364C117.288 1.41383 115.937 0.021508 114.056 0.021508ZM91.7574 9.3008C93.4458 7.76495 95.8092 6.85276 98.4618 6.85276H98.464C103.914 6.85276 107.434 10.5969 107.434 16.4037V28.4027C107.434 30.3225 106.084 31.7141 104.203 31.7141C102.371 31.7141 100.972 30.2745 100.972 28.4027V17.2678C100.972 14.532 99.1882 12.6603 96.534 12.6603C93.8799 12.6603 91.999 14.5801 91.999 17.2678V28.4027C91.999 30.3225 90.5998 31.7141 88.7672 31.7141C86.8863 31.7141 85.4879 30.2745 85.4879 28.4027V10.1168C85.4879 8.24508 86.8863 6.85276 88.7189 6.85276C90.214 6.85276 91.4199 7.86112 91.7574 9.3008ZM70.6166 26.9623C68.4948 26.9623 67.1923 25.9547 67.1923 24.373C67.1923 22.7912 68.3498 21.973 70.52 21.973H75.6327V22.2615C75.6327 24.9493 73.4625 26.9645 70.6166 26.9645V26.9623ZM71.8225 6.85276C68.3498 6.85276 65.2154 7.90847 63.1895 9.78093C62.3212 10.5947 61.8387 11.4603 61.8387 12.3702C61.8387 13.8099 63.0446 15.0099 64.6363 15.0099C65.263 15.0099 65.7938 14.8175 66.5693 14.242C67.9677 13.042 69.4628 12.4664 71.1511 12.4664C74.0446 12.4664 75.6364 14.0023 75.6364 16.6419V17.6976H69.6561C64.0616 17.6976 60.6373 20.3373 60.6373 24.609C60.6373 28.8318 63.965 31.7112 68.8844 31.7112C71.7295 31.7112 74.1413 30.7997 75.878 29.1677C76.1672 30.6074 77.4207 31.6631 79.0124 31.6631C80.7967 31.6631 82.1475 30.3196 82.1475 28.4479V17.0274C82.1438 10.5518 78.3819 6.85276 71.8225 6.85276ZM24.8462 6.85491C26.5889 6.85713 27.9992 8.26499 27.997 9.99913L28.0007 28.5721C27.9955 30.3055 26.5844 31.7089 24.8425 31.7141C23.1006 31.7089 21.6896 30.3055 21.6844 28.5721V17.5866L20.3878 18.8768C19.1522 20.099 17.1567 20.099 15.9211 18.8768C14.693 17.6473 14.693 15.6609 15.9211 14.4313L22.6122 7.77302C23.2047 7.18413 24.0084 6.85343 24.8462 6.85491Z" fill="url(#paint0_linear_391_3245)"/>
<path fill-rule="evenodd" clip-rule="evenodd" d="M7.33527e-06 9.99943C-0.00370991 8.26535 1.40587 6.85601 3.14851 6.85157C3.98861 6.84935 4.79525 7.18153 5.38927 7.77338L12.0803 14.4317C13.3092 15.6612 13.3092 17.6476 12.0803 18.8772C10.8447 20.0994 8.84854 20.0994 7.61293 18.8772L6.31709 17.5877V28.5724C6.31189 30.3058 4.90082 31.7092 3.15892 31.7144C1.41702 31.71 0.00521148 30.3058 7.33527e-06 28.5724V9.99943Z" fill="#FABF00"/>
</g>
<defs>
<linearGradient id="paint0_linear_391_3245" x1="21.5003" y1="28.999" x2="22.2741" y2="-6.16709" gradientUnits="userSpaceOnUse">
<stop stop-color="#0092A1"/>
<stop offset="1" stop-color="#009C4D"/>
</linearGradient>
</defs>
</svg>
