<svg width="238" height="44" viewBox="0 0 238 44" fill="none" xmlns="http://www.w3.org/2000/svg">
<path fill-rule="evenodd" clip-rule="evenodd" d="M0 21.4779C0.00126521 23.0105 0.0260949 23.983 0.373869 25.6803C1.00157 28.7445 1.96787 31.0891 3.73442 33.7045C4.00485 34.1049 4.23275 34.4433 4.53434 34.805C5.27228 35.6901 5.45083 35.9481 6.32857 36.8143C6.66638 37.1478 6.93839 37.4425 7.30989 37.736L8.89124 39.0104C9.49206 39.455 10.5623 40.1607 11.2107 40.5012C11.4063 40.6039 11.6676 40.7743 11.8491 40.8162C11.8553 40.5441 13.4126 34.2913 13.5608 33.6455C14.3647 30.1436 15.328 26.4585 16.1703 22.9309C16.2407 22.636 16.3958 21.9717 16.3854 21.6246C16.358 20.7174 15.5624 17.8551 15.3076 16.7878C14.9274 15.1954 11.8563 2.73174 11.8491 2.42188C11.2599 2.55737 8.90627 4.20019 8.3782 4.60746C5.88068 6.5333 3.7496 9.0762 2.33399 11.8728C1.02687 14.455 0.000158151 17.7422 0.000158151 20.9102V21.4776L0 21.4779Z" fill="black"/>
<path fill-rule="evenodd" clip-rule="evenodd" d="M56.9704 20.4937C56.9704 18.5756 57.6334 16.8543 58.9302 15.5763C59.0836 15.4252 59.192 15.3101 59.3479 15.1615C59.5026 15.014 59.6379 14.9313 59.8171 14.7977C60.7317 14.1164 62.3226 13.4645 63.5531 13.4645C65.4342 13.4645 66.5686 13.6979 68.09 14.716C69.8021 15.8618 71.0335 18.0689 71.0335 20.1982C71.0335 22.3472 70.3843 23.9282 68.9242 25.3815C66.3132 27.9803 61.7034 27.9869 59.0496 25.3522C57.9835 24.2937 56.9704 22.5759 56.9704 20.4935V20.4937ZM52.0633 20.3755C52.0633 23.6691 53.4013 26.2615 55.579 28.4235C58.2956 31.1205 62.6037 32.2293 66.5706 31.4461C67.0117 31.359 67.3076 31.2753 67.7171 31.1601C67.9205 31.1029 68.0626 31.0565 68.2556 30.9828C69.1798 30.6299 69.9117 30.3044 70.7352 29.7682C71.9533 28.975 72.8606 28.104 73.7181 26.9828C76.4693 23.3859 76.626 18.7573 74.4037 14.8045C73.9734 14.039 73.1472 13.031 72.5158 12.4151L71.7439 11.7593C71.0822 11.2429 70.3448 10.7303 69.5787 10.3523C66.3948 8.78101 62.1935 8.62928 58.925 10.1371C57.494 10.7971 56.6636 11.352 55.4882 12.4154L54.4821 13.5487C53.0211 15.3958 52.063 17.7964 52.063 20.3757L52.0633 20.3755Z" fill="black"/>
<path fill-rule="evenodd" clip-rule="evenodd" d="M123.754 18.1899V16.0635H119.446V31.244H123.754V22.62C123.754 21.0308 125.014 19.7847 126.686 19.7847C128.379 19.7847 129.2 20.8268 129.2 22.5018V31.2438H133.449V22.7971C133.449 19.7713 136.862 19.0807 138.223 20.4475C138.598 20.8242 138.895 21.4793 138.895 22.2065V31.2438H143.144V21.3204C143.144 20.5156 142.905 19.6325 142.674 19.0666C142.556 18.7772 142.383 18.4193 142.221 18.1548C142.141 18.0223 142.045 17.8793 141.956 17.7675C141.227 16.8525 140.244 16.1183 139.039 15.8615C137.115 15.4514 135.024 16.0618 133.703 17.3776L132.731 18.3671C132.468 18.1771 131.823 16.6462 129.717 15.9667C128.177 15.4699 126.203 15.7349 125.026 16.8462C124.625 17.2254 124.346 17.4463 124.016 17.9758C123.902 18.1584 123.97 18.1331 123.754 18.1899H123.754Z" fill="black"/>
<path fill-rule="evenodd" clip-rule="evenodd" d="M91.261 23.6317C91.261 28.0617 85.3518 29.1705 83.7542 25.2526C83.1893 23.8674 83.3786 22.2094 84.3599 21.014C84.6734 20.632 84.9345 20.4142 85.3982 20.1485C87.8868 18.7229 91.261 20.3794 91.261 23.6317ZM83.6009 18.1974V16.071H79.3521V37.7489H83.6009V29.0659C83.8655 29.1357 83.8718 29.2983 84.0635 29.4953C85.386 30.855 86.6248 31.5468 88.7475 31.5468C92.6332 31.5468 95.5098 27.6714 95.5098 23.868C95.5098 21.6296 94.9611 19.8655 93.7499 18.3396C92.709 17.0279 91.0929 16.0018 89.3894 15.7917C88.5579 15.6892 87.6246 15.744 86.9136 15.9737C85.7986 16.334 85.5029 16.5582 84.7126 17.1681L84.0017 17.884C83.6996 18.2666 83.8208 18.1795 83.6011 18.1974H83.6009Z" fill="black"/>
<path fill-rule="evenodd" clip-rule="evenodd" d="M152.66 28.1164C150.22 28.1164 150.34 26.0267 151.367 25.4227C152.096 24.9941 154.049 24.7367 155.002 24.5802C155.291 24.5326 155.536 24.4541 155.831 24.4541C155.831 25.5963 155.593 26.4026 154.949 27.1269C154.516 27.6127 153.567 28.1163 152.66 28.1163V28.1164ZM147.214 18.6655L149.713 21.161C149.923 21.0171 149.859 21.0016 150.011 20.8358C150.587 20.2074 151.955 19.4926 152.959 19.4926C153.871 19.4926 154.473 19.5712 155.137 20.1782C155.513 20.5221 155.709 20.9234 155.831 21.4418C155.482 21.607 150.887 22.2011 149.624 22.6986C147.912 23.373 146.436 24.9365 146.436 26.9352C146.436 28.3979 146.704 29.3368 147.796 30.3771C149.616 32.1111 153.147 31.7973 154.919 30.17C155.073 30.0288 155.187 29.9044 155.338 29.7557C155.496 29.5992 155.6 29.4179 155.831 29.357V31.2472H160.08V21.56C160.08 18.6203 157.761 16.3772 154.959 15.8643C151.879 15.3003 149.108 16.5146 147.214 18.6657V18.6655Z" fill="black"/>
<path fill-rule="evenodd" clip-rule="evenodd" d="M100.356 14.5308C100.356 16.6389 98.6797 16.3618 97.1846 16.3618V20.0832C97.1846 20.2193 97.2262 20.2603 97.3641 20.2603H99.8776V26.1081C99.8776 29.496 101.873 31.5423 105.204 31.5423C106.041 31.5423 107.346 31.3303 107.897 31.0698V27.1713C107.315 27.4467 106.584 27.4666 105.922 27.4666C104.743 27.4666 104.126 26.4532 104.126 25.281V20.2602H107.597V16.3617H104.126V11.6953H100.356V14.5306V14.5308Z" fill="black"/>
<path fill-rule="evenodd" clip-rule="evenodd" d="M111.188 31.243H115.437V16.0625H111.188V31.243Z" fill="black"/>
<path fill-rule="evenodd" clip-rule="evenodd" d="M113.165 14.0571C114.687 14.0571 115.738 13.1048 115.738 11.5762C115.738 10.4721 114.577 9.39062 113.344 9.39062C112.003 9.39062 110.942 10.387 110.858 11.6558C110.778 12.8578 111.963 14.0571 113.165 14.0571Z" fill="black"/>
<path fill-rule="evenodd" clip-rule="evenodd" d="M12.0283 2.30391C12.2421 2.61908 12.7405 2.94893 13.0313 3.20416C13.1741 3.32935 13.2407 3.3601 13.3898 3.50013L16.9209 6.51228C17.074 6.6626 17.1201 6.68024 17.2767 6.81074L22.5355 11.3073C22.7837 11.4976 22.9972 11.7141 23.2371 11.9144L27.4501 15.4938C27.6938 15.6973 27.904 15.9092 28.1441 16.1084C28.8401 16.6862 29.5769 17.2637 30.2359 17.8831C30.3843 18.0225 30.4518 18.0545 30.594 18.1794L32.3573 19.6875C32.5973 19.8877 32.8108 20.1043 33.0589 20.2945L33.7668 20.8954C34.0045 21.1188 34.3502 21.2369 34.3502 21.6189C34.3502 22.0243 33.72 22.3618 33.4382 22.6089L32.0309 23.819C31.5908 24.251 31.0771 24.615 30.6248 25.0301L23.2373 31.3238C22.5838 31.8694 21.8232 32.6048 21.1595 33.1123L19.7398 34.3099C18.5422 35.2623 17.4589 36.3671 16.243 37.2969L15.5445 37.9068C14.8636 38.5317 14.1012 39.0838 13.4204 39.7087L12.3699 40.6211C12.1888 40.7708 12.1664 40.7315 12.029 40.9342C14.6543 42.3054 18.2071 43.2378 21.2449 43.2378C24.4572 43.2378 26.3089 42.9711 29.2269 42.0199C31.0934 41.4116 32.8813 40.4464 34.4707 39.3398C35.8204 38.4001 37.6173 36.8776 38.634 35.5932C39.4186 34.6021 40.1575 33.6313 40.8172 32.55C42.6334 29.5728 43.8059 25.8143 43.8059 22.3278C43.8059 20.0428 43.6988 18.4781 43.1597 16.35C42.3794 13.2703 40.95 10.5425 38.9665 8.08454L38.0457 7.04412C37.7098 6.71755 37.4281 6.31184 37.0525 6.01618C36.8925 5.89005 36.8498 5.86601 36.6991 5.71537C36.4664 5.48262 36.2643 5.31122 36.0078 5.09814C35.754 4.88741 35.546 4.71679 35.283 4.51417C31.7956 1.82671 27.0253 0 22.5616 0C19.1109 0 17.1366 0.315951 14.0569 1.4107C13.7215 1.52996 13.3511 1.68528 13.0467 1.83108C12.7025 1.99592 12.3645 2.12861 12.0293 2.3036L12.0283 2.30391Z" fill="#EC1B23"/>
<path fill-rule="evenodd" clip-rule="evenodd" d="M222.378 31.2482H226.627V27.7633C226.627 27.6109 227.452 26.7161 227.602 26.5403L228.108 25.9765C228.307 25.7703 228.429 25.5544 228.662 25.4006L232.551 31.2484H237.399C237.319 30.909 231.641 22.634 231.474 22.3882L237.099 16.0679C236.573 16.0679 232.274 15.9753 232.026 16.1397L230.798 17.5272C229.835 18.6576 228.563 19.9781 227.602 21.1061L226.627 22.2109V9.57031H222.378V31.2482Z" fill="#EC1B23"/>
<path fill-rule="evenodd" clip-rule="evenodd" d="M191.976 28.1182C189.815 28.1182 189.684 26.0825 190.803 25.4245C191.314 25.1245 191.529 25.1167 192.161 24.9928L195.268 24.4561C195.268 26.6251 194.032 28.1182 191.976 28.1182ZM186.65 18.6673L189.149 21.1628L189.776 20.5707C190.042 20.3418 190.185 20.2374 190.505 20.0506C192.284 19.0129 194.817 19.4218 195.219 21.2705C195.267 21.4936 195.264 21.4726 194.993 21.5229C193.537 21.7936 190.195 22.2494 188.975 22.7338C187.311 23.3944 185.872 25.0283 185.872 26.8188C185.872 27.7943 185.846 28.2486 186.291 29.1228C186.581 29.6922 186.76 29.9162 187.203 30.3494C188.998 32.1046 192.328 31.8488 194.353 30.1685C194.685 29.8923 194.993 29.4312 195.268 29.3589V31.2492H199.517V21.6801C199.517 19.6083 198.454 18.002 197.158 17.0382C196.69 16.6901 196.171 16.4252 195.611 16.2029C194.472 15.7513 193.118 15.6255 191.889 15.8055C189.708 16.1254 188.084 17.0398 186.65 18.6676V18.6673Z" fill="#EC1B23"/>
<path fill-rule="evenodd" clip-rule="evenodd" d="M208.016 18.1931H207.837V16.0667H203.588V31.2472H207.837V22.9777C207.837 22.101 208.296 21.2009 208.748 20.7465C210.525 18.9607 213.886 19.7381 213.883 22.3848L213.881 30.4793C213.88 30.7756 213.783 31.2472 214.06 31.2472H218.19V22.2098C218.19 17.3463 214.342 14.7643 210.701 16.0584C209.848 16.3614 208.191 17.5462 208.016 18.1931H208.016Z" fill="#EC1B23"/>
<path fill-rule="evenodd" clip-rule="evenodd" d="M175.64 27.1802H170.493V21.9823H175.64C179.206 21.9823 179.187 27.1802 175.64 27.1802ZM174.862 17.9065H170.493V13.5945H174.562C175.321 13.5945 175.92 13.7546 176.359 14.0653C177.883 15.1427 177.356 17.9065 174.862 17.9065ZM165.765 31.2559H175.64C177.9 31.2559 180.097 30.5525 181.492 29.176C183.27 27.4201 183.765 24.4041 182.488 22.3103C181.305 20.3687 179.4 19.9661 179.23 19.7376C179.858 19.5932 180.811 18.6862 181.189 18.1859C182.317 16.693 182.41 14.3083 181.456 12.7557C180.612 11.3806 179.7 10.6943 178.179 10.0841C177.573 9.84116 176.455 9.57812 175.64 9.57812H165.766V31.256L165.765 31.2559Z" fill="#EC1C24"/>
</svg>
