<svg width="24" height="34" viewBox="0 0 24 34" fill="none" xmlns="http://www.w3.org/2000/svg">
<path d="M23.4197 23.6833C23.6046 23.4984 23.7513 23.2788 23.8514 23.0373C23.9514 22.7957 24.0029 22.5367 24.0029 22.2753C24.0029 22.0138 23.9514 21.7548 23.8514 21.5132C23.7513 21.2717 23.6046 21.0522 23.4197 20.8673C23.2348 20.6824 23.0153 20.5357 22.7737 20.4356C22.5321 20.3356 22.2732 20.2841 22.0117 20.2841C21.7502 20.2841 21.4913 20.3356 21.2497 20.4356C21.0081 20.5357 20.7886 20.6824 20.6037 20.8673L12.3174 29.1536L4.03108 20.8673C3.75214 20.5902 3.39764 20.4015 3.012 20.325C2.62635 20.2485 2.22669 20.2874 1.86307 20.4369C1.49945 20.5865 1.18803 20.84 0.967815 21.1657C0.747602 21.4914 0.628389 21.8749 0.625097 22.268C0.624226 22.5292 0.676031 22.7878 0.777401 23.0285C0.878773 23.2692 1.02763 23.4869 1.21508 23.6688L10.9022 33.3559C11.0866 33.5415 11.306 33.6889 11.5476 33.7895C11.7893 33.89 12.0484 33.9418 12.3102 33.9418C12.5719 33.9418 12.8311 33.89 13.0727 33.7895C13.3143 33.6889 13.5337 33.5415 13.7182 33.3559L23.4197 23.6833Z" fill="#656565"/>
<g opacity="0.5">
<path d="M23.4207 13.4224C23.6056 13.2375 23.7523 13.018 23.8523 12.7764C23.9524 12.5348 24.0039 12.2759 24.0039 12.0144C24.0039 11.7529 23.9524 11.494 23.8523 11.2524C23.7523 11.0108 23.6056 10.7913 23.4207 10.6064C23.2358 10.4215 23.0163 10.2748 22.7747 10.1748C22.5331 10.0747 22.2742 10.0232 22.0127 10.0232C21.7512 10.0232 21.4923 10.0747 21.2507 10.1748C21.0091 10.2748 20.7896 10.4215 20.6047 10.6064L12.3184 18.8927L4.03205 10.6064C3.75311 10.3293 3.39862 10.1407 3.01297 10.0641C2.62732 9.98759 2.22767 10.0265 1.86405 10.1761C1.50043 10.3256 1.189 10.5791 0.968792 10.9048C0.748579 11.2306 0.629366 11.614 0.626074 12.0072C0.625202 12.2683 0.677008 12.527 0.778378 12.7676C0.879749 13.0083 1.0286 13.2261 1.21605 13.4079L10.9031 23.095C11.0876 23.2807 11.307 23.428 11.5486 23.5286C11.7903 23.6291 12.0494 23.6809 12.3111 23.6809C12.5729 23.6809 12.832 23.6291 13.0737 23.5286C13.3153 23.428 13.5347 23.2807 13.7191 23.095L23.4207 13.4224Z" fill="#656565"/>
</g>
<g opacity="0.3">
<path d="M23.4207 3.3992C23.6056 3.2143 23.7523 2.99479 23.8523 2.7532C23.9524 2.51162 24.0039 2.25269 24.0039 1.9912C24.0039 1.72971 23.9524 1.47078 23.8523 1.22919C23.7523 0.987608 23.6056 0.768108 23.4207 0.583207C23.2358 0.398306 23.0163 0.251636 22.7747 0.151569C22.5331 0.051501 22.2742 -1.54637e-08 22.0127 0C21.7512 1.54637e-08 21.4923 0.051501 21.2507 0.151569C21.0091 0.251636 20.7896 0.398306 20.6047 0.583207L12.3184 8.86952L4.03205 0.583207C3.75311 0.306121 3.39862 0.117491 3.01297 0.0409436C2.62732 -0.0356033 2.22767 0.00333129 1.86405 0.152876C1.50043 0.30242 1.189 0.555935 0.968792 0.88165C0.748579 1.20737 0.629366 1.5908 0.626074 1.98396C0.625202 2.24512 0.677008 2.50376 0.778378 2.74444C0.879749 2.98512 1.0286 3.20288 1.21605 3.38472L10.9031 13.0718C11.0876 13.2575 11.307 13.4048 11.5486 13.5054C11.7903 13.606 12.0494 13.6577 12.3111 13.6577C12.5729 13.6577 12.832 13.606 13.0737 13.5054C13.3153 13.4048 13.5347 13.2575 13.7191 13.0718L23.4207 3.3992Z" fill="#656565"/>
</g>
</svg>
