<svg width="20" height="20" viewBox="0 0 20 20" fill="none" xmlns="http://www.w3.org/2000/svg">
<path d="M8.50244 18.8934C8.65569 19.0467 8.83764 19.1683 9.03787 19.2512C9.23811 19.3341 9.45272 19.3768 9.66945 19.3768C9.88618 19.3768 10.1008 19.3341 10.301 19.2512C10.5013 19.1683 10.6832 19.0467 10.8364 18.8934C10.9897 18.7402 11.1113 18.5583 11.1942 18.358C11.2771 18.1578 11.3198 17.9432 11.3198 17.7264C11.3198 17.5097 11.2771 17.2951 11.1942 17.0949C11.1113 16.8946 10.9897 16.7127 10.8364 16.5594L3.96845 9.69145L10.8364 2.82344C11.0661 2.59225 11.2224 2.29843 11.2859 1.97879C11.3493 1.65915 11.3171 1.3279 11.1931 1.02652C11.0692 0.725138 10.859 0.46702 10.5891 0.2845C10.3191 0.10198 10.0013 0.00317186 9.67545 0.000442433C9.45899 -0.000280462 9.24462 0.0426578 9.04514 0.126678C8.84565 0.210699 8.66516 0.334074 8.51445 0.489441L0.485444 8.51845C0.331546 8.67134 0.209414 8.85315 0.126069 9.05344C0.0427231 9.25372 -0.000182672 9.46851 -0.000182682 9.68544C-0.000182691 9.90237 0.0427231 10.1172 0.126069 10.3175C0.209414 10.5177 0.331546 10.6996 0.485443 10.8524L8.50244 18.8934Z" fill="#323232"/>
<g opacity="0.5">
<path d="M17.146 18.893C17.2992 19.0463 17.4812 19.1678 17.6814 19.2508C17.8817 19.3337 18.0963 19.3764 18.313 19.3764C18.5297 19.3764 18.7443 19.3337 18.9446 19.2508C19.1448 19.1678 19.3267 19.0463 19.48 18.893C19.6332 18.7398 19.7548 18.5578 19.8378 18.3576C19.9207 18.1574 19.9634 17.9427 19.9634 17.726C19.9634 17.5093 19.9207 17.2947 19.8378 17.0944C19.7548 16.8942 19.6332 16.7123 19.48 16.559L12.612 9.69102L19.48 2.82301C19.7097 2.59182 19.866 2.298 19.9294 1.97836C19.9929 1.65872 19.9606 1.32747 19.8367 1.02609C19.7127 0.72471 19.5026 0.466593 19.2326 0.284073C18.9627 0.101553 18.6449 0.00274462 18.319 1.51869e-05C18.1025 -0.000707708 17.8882 0.0422305 17.6887 0.126251C17.4892 0.210272 17.3087 0.333647 17.158 0.489014L9.129 8.51802C8.9751 8.67091 8.85297 8.85273 8.76962 9.05301C8.68628 9.25329 8.64337 9.46808 8.64337 9.68501C8.64337 9.90194 8.68628 10.1167 8.76962 10.317C8.85297 10.5173 8.9751 10.6991 9.129 10.852L17.146 18.893Z" fill="#282B2A"/>
</g>
</svg>
