<svg width="40" height="35" viewBox="0 0 40 35" fill="none" xmlns="http://www.w3.org/2000/svg">
<g filter="url(#filter0_d_360_588)">
<path d="M23.3745 14.6822C22.9267 14.682 22.4926 14.5276 22.1452 14.2449C21.7363 13.8886 21.3754 13.5799 21.0288 13.2828L20.5121 12.84C17.4457 10.2559 15.2295 8.38742 15.2295 5.35443C15.2295 2.3518 17.4391 0 20.2595 0C21.4402 0 22.6214 0.739854 23.5 1.5C24.3781 0.739854 25.3098 0 26.491 0C29.3114 0 31.5205 2.3518 31.5205 5.35443C31.5205 7.6794 30.1045 9.34545 28.7193 10.6689C28.0341 11.3263 27.2643 11.9812 26.3726 12.7398L26.2324 12.8592C25.7293 13.2788 25.1939 13.7307 24.6458 14.2105C24.247 14.5313 23.8219 14.6822 23.3745 14.6822Z" fill="white"/>
<path d="M11.893 23.7345C12.133 23.5993 12.4033 23.5268 12.6787 23.5238C12.9542 23.5208 13.226 23.5874 13.4689 23.7173C17.966 26.1101 20.1594 26.1172 20.997 25.9583C20.997 25.9583 27.8034 25.7341 34.7834 19.2405L35.3451 18.6787C35.5917 18.4321 35.7505 18.1114 35.7972 17.7658C35.8438 17.4202 35.7757 17.0688 35.6033 16.7657C35.4662 16.5249 35.28 16.3156 35.0569 16.1512C34.8338 15.9869 34.5787 15.8712 34.3081 15.8117C34.0375 15.7522 33.7574 15.7501 33.486 15.8056C33.2145 15.8612 32.9577 15.9731 32.7322 16.1341L30.5581 17.3543C29.1187 18.162 27.7194 19.0426 26.4026 20.0381C21.7804 23.5331 17.7337 20.2784 17.7337 20.2784C20.8624 21.3772 23.8807 20.488 25.235 19.3715C26.4734 18.3912 26.4309 17.2136 24.03 17.0516C20.335 16.8021 19.1913 16.1351 18.838 15.7302C18.5177 15.3628 18.1538 15.0328 17.7282 14.795C12.7731 12.0272 7.88069 16.3988 7.88069 16.3988L8.16107 16.9185L11.3256 22.7962L11.8135 23.7032C11.8205 23.7172 11.8324 23.7282 11.847 23.734C11.8615 23.7399 11.8777 23.7403 11.8925 23.735M7.10739 16.7642L11.1025 24.0883L8.06946 25.9745L4 18.3543L7.10739 16.7642Z" fill="white"/>
</g>
<defs>
<filter id="filter0_d_360_588" x="0" y="0" width="39.8115" height="34.0159" filterUnits="userSpaceOnUse" color-interpolation-filters="sRGB">
<feFlood flood-opacity="0" result="BackgroundImageFix"/>
<feColorMatrix in="SourceAlpha" type="matrix" values="0 0 0 0 0 0 0 0 0 0 0 0 0 0 0 0 0 0 127 0" result="hardAlpha"/>
<feOffset dy="4"/>
<feGaussianBlur stdDeviation="2"/>
<feComposite in2="hardAlpha" operator="out"/>
<feColorMatrix type="matrix" values="0 0 0 0 0 0 0 0 0 0 0 0 0 0 0 0 0 0 0.25 0"/>
<feBlend mode="normal" in2="BackgroundImageFix" result="effect1_dropShadow_360_588"/>
<feBlend mode="normal" in="SourceGraphic" in2="effect1_dropShadow_360_588" result="shape"/>
</filter>
</defs>
</svg>
