<svg width="24" height="24" viewBox="0 0 24 24" fill="none" xmlns="http://www.w3.org/2000/svg">
<path d="M24 11.5862V21.5172C24 22.1757 23.7384 22.8072 23.2728 23.2728C22.8072 23.7384 22.1757 24 21.5172 24H2.48276C1.82429 24 1.19279 23.7384 0.727183 23.2728C0.261576 22.8072 0 22.1757 0 21.5172V2.48276C0 1.82429 0.261576 1.19279 0.727183 0.727183C1.19279 0.261576 1.82429 0 2.48276 0H12.4138C12.743 0 13.0588 0.130788 13.2916 0.363592C13.5244 0.596395 13.6552 0.912145 13.6552 1.24138C13.6552 1.57061 13.5244 1.88636 13.2916 2.11917C13.0588 2.35197 12.743 2.48276 12.4138 2.48276H3.31034C3.09106 2.48341 2.88094 2.57082 2.72588 2.72588C2.57082 2.88094 2.48341 3.09106 2.48276 3.31034V20.6897C2.48341 20.9089 2.57082 21.1191 2.72588 21.2741C2.88094 21.4292 3.09106 21.5166 3.31034 21.5172H20.6897C20.9089 21.5166 21.1191 21.4292 21.2741 21.2741C21.4292 21.1191 21.5166 20.9089 21.5172 20.6897V11.5862C21.5172 11.257 21.648 10.9412 21.8808 10.7084C22.1136 10.4756 22.4294 10.3448 22.7586 10.3448C23.0879 10.3448 23.4036 10.4756 23.6364 10.7084C23.8692 10.9412 24 11.257 24 11.5862Z" fill="white"/>
<path d="M23.9991 0.827586V6.62069C23.9991 6.94992 23.8683 7.26567 23.6355 7.49848C23.4027 7.73128 23.087 7.86207 22.7577 7.86207C22.4285 7.86207 22.1127 7.73128 21.8799 7.49848C21.6471 7.26567 21.5163 6.94992 21.5163 6.62069V4.23724L14.0515 11.7021C13.8162 11.9213 13.5049 12.0407 13.1833 12.035C12.8617 12.0294 12.5549 11.8991 12.3275 11.6716C12.1 11.4442 11.9697 11.1374 11.9641 10.8158C11.9584 10.4942 12.0778 10.1829 12.297 9.94759L19.7619 2.48276H17.3784C17.0492 2.48276 16.7334 2.35197 16.5006 2.11917C16.2678 1.88636 16.137 1.57061 16.137 1.24138C16.137 0.912145 16.2678 0.596395 16.5006 0.363592C16.7334 0.130788 17.0492 0 17.3784 0H23.1715C23.3908 0.000654921 23.6009 0.0880571 23.756 0.243118C23.9111 0.398179 23.9985 0.608298 23.9991 0.827586Z" fill="white"/>
</svg>
