<svg width="22" height="19" viewBox="0 0 22 19" fill="none" xmlns="http://www.w3.org/2000/svg">
<path d="M14.6172 2.2305L14.6173 2.23058C14.9423 2.43987 15.0377 2.87322 14.8282 3.19935L14.8282 3.19948C14.6183 3.52531 14.1856 3.61968 13.8596 3.41044L13.8595 3.41041C12.6503 2.63343 11.2498 2.22329 9.81042 2.22329C5.67024 2.22329 2.30141 5.59211 2.30141 9.7323C2.30141 13.8723 5.67023 17.2411 9.81042 17.2411C13.9505 17.2411 17.3193 13.8723 17.3193 9.7323C17.3193 9.48475 17.3074 9.23968 17.2846 8.99866C17.2846 8.9986 17.2845 8.99854 17.2845 8.99848L17.3841 8.98903M14.6172 2.2305L17.9239 8.33302C17.594 8.36501 17.3521 8.65816 17.3841 8.98903M14.6172 2.2305C13.1809 1.30867 11.5187 0.821875 9.81042 0.821875C4.89746 0.821875 0.9 4.81934 0.9 9.7323C0.9 14.6453 4.89746 18.6426 9.81042 18.6426M14.6172 2.2305L9.81042 18.6426M17.3841 8.98903C17.4073 9.23322 17.4193 9.4815 17.4193 9.7323C17.4193 13.9276 14.0057 17.3412 9.81042 17.3412C5.61501 17.3412 2.20141 13.9276 2.20141 9.7323C2.20141 5.53688 5.61501 2.12329 9.81042 2.12329C11.2689 2.12329 12.6881 2.5389 13.9136 3.32628C14.1931 3.50567 14.564 3.42487 14.7441 3.14532C14.9236 2.8658 14.8419 2.49419 14.5631 2.31465M17.3841 8.98903L14.5631 2.31465M14.5631 2.31465C13.1431 1.40319 11.4996 0.921875 9.81042 0.921875C4.95269 0.921875 1 4.87457 1 9.7323C1 14.59 4.95269 18.5426 9.81042 18.5426C14.6681 18.5426 18.6207 14.59 18.6207 9.7323M14.5631 2.31465L18.5799 8.87291C18.6072 9.15856 18.6208 9.44535 18.6207 9.7323M18.6207 9.7323L18.7207 9.73234M18.6207 9.7323L18.7207 9.73234M18.7207 9.73234C18.7207 14.6453 14.7234 18.6426 9.81042 18.6426M18.7207 9.73234L9.81042 18.6426" fill="#656565" stroke="#656565" stroke-width="0.2"/>
<path d="M10.8618 12.2273C11.1528 12.2274 11.4324 12.1128 11.6393 11.9077L11.64 11.907L20.46 3.12964L20.1073 2.77523L20.46 3.12964C20.8913 2.70041 20.8913 2.0035 20.46 1.57428L20.1073 1.92868L20.46 1.57428C20.0299 1.14632 19.3339 1.14648 18.9039 1.57416L18.9038 1.57428L10.8624 9.57693L8.03188 6.76005C7.60191 6.33216 6.9058 6.33216 6.47583 6.76005C6.04447 7.18933 6.04459 7.88617 6.47574 8.31544L6.47583 8.31553L10.0827 11.905C10.083 11.9053 10.0833 11.9056 10.0836 11.9058C10.1857 12.008 10.3071 12.089 10.4406 12.1441C10.5742 12.1993 10.7173 12.2275 10.8618 12.2273ZM10.8618 12.2273C10.8615 12.2273 10.8613 12.2273 10.8611 12.2273L10.8616 11.7273L10.8626 12.2273C10.8624 12.2273 10.8621 12.2273 10.8618 12.2273Z" fill="#00BD2A" stroke="#00BD2A"/>
</svg>
