<svg width="106" height="103" viewBox="0 0 106 103" fill="none" xmlns="http://www.w3.org/2000/svg">
<path fill-rule="evenodd" clip-rule="evenodd" d="M19.9624 61.1521L32.4461 61.1446C34.2234 57.8695 35.7896 55.4117 39.0832 53.1923C48.2349 47.0261 55.3299 51.469 58.9279 48.6084C60.3775 47.4556 61.1817 46.2531 61.0636 43.8987C60.9681 41.9802 59.8773 40.5118 58.4781 39.6498C56.62 38.505 51.8047 38.8857 49.0994 38.8905L42.4224 38.905C42.4886 38.2077 43.7478 35.5761 44.1681 34.614C48.2711 25.2222 48.8051 17.2577 45.4116 7.59108L44.7411 6.08655C44.32 6.47575 19.9626 61.1516 19.9624 61.1521Z" fill="#1AABBE"/>
<path fill-rule="evenodd" clip-rule="evenodd" d="M82.7214 61.216L87.3711 61.1839L79.9207 44.5442C77.4699 39.0934 74.8678 33.284 72.4433 27.8925C69.9398 22.3244 67.3866 16.8741 64.95 11.2418C63.8164 8.62171 62.436 5.02613 60.614 3.4384C56.2629 -0.354611 53.0551 0.0412687 48.0005 0.052592L69.8713 50.0524C70.5371 51.5361 71.02 52.739 71.6715 54.1651C73.6311 58.4574 77.7813 61.2112 82.7214 61.216Z" fill="#203F7D"/>
<path fill-rule="evenodd" clip-rule="evenodd" d="M82.407 33.845C82.9576 33.4298 93.3313 18.1319 94.0587 17.0989C97.1821 12.6608 101.048 6.73538 104.226 2.36359C104.705 1.70379 105.417 0.908993 105.437 0.0641005C101.805 -0.389846 95.9499 1.66808 93.3952 3.05968C86.3007 6.92527 82.1753 12.8618 80.5956 20.7485C80.0223 23.6109 80.3586 28.1603 81.2673 31.0396L81.9842 33.1222C81.9887 33.1327 82.1211 33.4172 82.1324 33.4368L82.407 33.845Z" fill="#1AABBE"/>
<path d="M21.4858 102V95.7001H23.9428C24.4948 95.7001 24.9658 95.7871 25.3558 95.9611C25.7458 96.1351 26.0458 96.3871 26.2558 96.7171C26.4658 97.0471 26.5708 97.4401 26.5708 97.8961C26.5708 98.3521 26.4658 98.7451 26.2558 99.0751C26.0458 99.3991 25.7458 99.6511 25.3558 99.8311C24.9658 100.005 24.4948 100.092 23.9428 100.092H21.9808L22.3858 99.6691V102H21.4858ZM22.3858 99.7591L21.9808 99.3091H23.9158C24.4918 99.3091 24.9268 99.1861 25.2208 98.9401C25.5208 98.6941 25.6708 98.3461 25.6708 97.8961C25.6708 97.4461 25.5208 97.0981 25.2208 96.8521C24.9268 96.6061 24.4918 96.4831 23.9158 96.4831H21.9808L22.3858 96.0331V99.7591Z" fill="#203F7D"/>
<path d="M30.5206 102.072C29.6926 102.072 29.0416 101.835 28.5676 101.361C28.0936 100.887 27.8566 100.194 27.8566 99.2821V95.7001H28.7566V99.2461C28.7566 99.9481 28.9096 100.461 29.2156 100.785C29.5276 101.109 29.9656 101.271 30.5296 101.271C31.0996 101.271 31.5376 101.109 31.8436 100.785C32.1556 100.461 32.3116 99.9481 32.3116 99.2461V95.7001H33.1846V99.2821C33.1846 100.194 32.9476 100.887 32.4736 101.361C32.0056 101.835 31.3546 102.072 30.5206 102.072Z" fill="#203F7D"/>
<path d="M35.0298 102V95.7001H37.8558C38.5818 95.7001 39.1398 95.8471 39.5298 96.1411C39.9198 96.4291 40.1148 96.8251 40.1148 97.3291C40.1148 97.6711 40.0368 97.9591 39.8808 98.1931C39.7308 98.4271 39.5268 98.6071 39.2688 98.7331C39.0108 98.8591 38.7318 98.9221 38.4318 98.9221L38.5938 98.6521C38.9538 98.6521 39.2718 98.7151 39.5478 98.8411C39.8238 98.9671 40.0428 99.1531 40.2048 99.3991C40.3668 99.6391 40.4478 99.9391 40.4478 100.299C40.4478 100.839 40.2438 101.259 39.8358 101.559C39.4338 101.853 38.8338 102 38.0358 102H35.0298ZM35.9298 101.271H37.9998C38.4978 101.271 38.8788 101.187 39.1428 101.019C39.4068 100.851 39.5388 100.587 39.5388 100.227C39.5388 99.8611 39.4068 99.5941 39.1428 99.4261C38.8788 99.2581 38.4978 99.1741 37.9998 99.1741H35.8488V98.4451H37.7748C38.2308 98.4451 38.5848 98.3611 38.8368 98.1931C39.0888 98.0251 39.2148 97.7731 39.2148 97.4371C39.2148 97.1011 39.0888 96.8491 38.8368 96.6811C38.5848 96.5131 38.2308 96.4291 37.7748 96.4291H35.9298V101.271Z" fill="#203F7D"/>
<path d="M41.8413 102V95.7001H42.7413V101.217H46.1523V102H41.8413Z" fill="#203F7D"/>
<path d="M47.1851 102V95.7001H48.0851V102H47.1851Z" fill="#203F7D"/>
<path d="M52.7882 102.072C52.3082 102.072 51.8642 101.994 51.4562 101.838C51.0542 101.676 50.7032 101.451 50.4032 101.163C50.1092 100.869 49.8782 100.527 49.7102 100.137C49.5422 99.7471 49.4582 99.3181 49.4582 98.8501C49.4582 98.3821 49.5422 97.9531 49.7102 97.5631C49.8782 97.1731 50.1122 96.8341 50.4122 96.5461C50.7122 96.2521 51.0632 96.0271 51.4652 95.8711C51.8732 95.7091 52.3172 95.6281 52.7972 95.6281C53.2832 95.6281 53.7302 95.7121 54.1382 95.8801C54.5522 96.0421 54.9032 96.2851 55.1912 96.6091L54.6062 97.1761C54.3662 96.9241 54.0962 96.7381 53.7962 96.6181C53.4962 96.4921 53.1752 96.4291 52.8332 96.4291C52.4792 96.4291 52.1492 96.4891 51.8432 96.6091C51.5432 96.7291 51.2822 96.8971 51.0602 97.1131C50.8382 97.3291 50.6642 97.5871 50.5382 97.8871C50.4182 98.1811 50.3582 98.5021 50.3582 98.8501C50.3582 99.1981 50.4182 99.5221 50.5382 99.8221C50.6642 100.116 50.8382 100.371 51.0602 100.587C51.2822 100.803 51.5432 100.971 51.8432 101.091C52.1492 101.211 52.4792 101.271 52.8332 101.271C53.1752 101.271 53.4962 101.211 53.7962 101.091C54.0962 100.965 54.3662 100.773 54.6062 100.515L55.1912 101.082C54.9032 101.406 54.5522 101.652 54.1382 101.82C53.7302 101.988 53.2802 102.072 52.7882 102.072Z" fill="#203F7D"/>
<path d="M59.7021 98.6791H62.9511V99.4531H59.7021V98.6791ZM59.7921 102H58.8921V95.7001H63.3381V96.4831H59.7921V102Z" fill="#203F7D"/>
<path d="M67.215 102.072C66.387 102.072 65.736 101.835 65.262 101.361C64.788 100.887 64.551 100.194 64.551 99.2821V95.7001H65.451V99.2461C65.451 99.9481 65.604 100.461 65.91 100.785C66.222 101.109 66.66 101.271 67.224 101.271C67.794 101.271 68.232 101.109 68.538 100.785C68.85 100.461 69.006 99.9481 69.006 99.2461V95.7001H69.879V99.2821C69.879 100.194 69.642 100.887 69.168 101.361C68.7 101.835 68.049 102.072 67.215 102.072Z" fill="#203F7D"/>
<path d="M71.7241 102V95.7001H72.4621L76.6291 100.875H76.2421V95.7001H77.1421V102H76.4041L72.2371 96.8251H72.6241V102H71.7241Z" fill="#203F7D"/>
<path d="M79.0278 102V95.7001H81.6828C82.3548 95.7001 82.9458 95.8321 83.4558 96.0961C83.9718 96.3601 84.3708 96.7291 84.6528 97.2031C84.9408 97.6771 85.0848 98.2261 85.0848 98.8501C85.0848 99.4741 84.9408 100.023 84.6528 100.497C84.3708 100.971 83.9718 101.34 83.4558 101.604C82.9458 101.868 82.3548 102 81.6828 102H79.0278ZM79.9278 101.217H81.6288C82.1508 101.217 82.6008 101.118 82.9788 100.92C83.3628 100.722 83.6598 100.446 83.8698 100.092C84.0798 99.7321 84.1848 99.3181 84.1848 98.8501C84.1848 98.3761 84.0798 97.9621 83.8698 97.6081C83.6598 97.2541 83.3628 96.9781 82.9788 96.7801C82.6008 96.5821 82.1508 96.4831 81.6288 96.4831H79.9278V101.217Z" fill="#203F7D"/>
<path d="M0.451172 90L6.12117 77.4H8.42517L14.1132 90H11.6652L6.78717 78.642H7.72317L2.86317 90H0.451172ZM3.06117 87.084L3.69117 85.248H10.4952L11.1252 87.084H3.06117Z" fill="#1AABBE"/>
<path d="M15.7156 90V77.4H18.0556V88.02H24.6436V90H15.7156Z" fill="#1AABBE"/>
<path d="M27.8693 90V79.38H23.6933V77.4H34.3853V79.38H30.2093V90H27.8693Z" fill="#1AABBE"/>
<path d="M40.612 90V85.014L41.134 86.454L35.662 77.4H38.164L42.556 84.69H41.152L45.58 77.4H47.884L42.412 86.454L42.952 85.014V90H40.612Z" fill="#1AABBE"/>
<path d="M49.2406 90V77.4H51.1666L59.0686 87.102H58.1146V77.4H60.4366V90H58.5106L50.6086 80.298H51.5626V90H49.2406Z" fill="#1AABBE"/>
<path d="M74.2055 90.18C72.4775 90.18 71.1215 89.694 70.1375 88.722C69.1655 87.75 68.6795 86.346 68.6795 84.51V77.4H71.0195V84.42C71.0195 85.716 71.2955 86.658 71.8475 87.246C72.4115 87.834 73.2035 88.128 74.2235 88.128C75.2435 88.128 76.0295 87.834 76.5815 87.246C77.1335 86.658 77.4095 85.716 77.4095 84.42V77.4H79.7135V84.51C79.7135 86.346 79.2215 87.75 78.2375 88.722C77.2655 89.694 75.9215 90.18 74.2055 90.18Z" fill="#1AABBE"/>
<path d="M85.9108 90V85.014L86.4328 86.454L80.9608 77.4H83.4628L87.8548 84.69H86.4508L90.8788 77.4H93.1828L87.7108 86.454L88.2508 85.014V90H85.9108Z" fill="#1AABBE"/>
<path d="M92.1773 90L97.8473 77.4H100.151L105.839 90H103.391L98.5133 78.642H99.4493L94.5893 90H92.1773ZM94.7873 87.084L95.4173 85.248H102.221L102.851 87.084H94.7873Z" fill="#1AABBE"/>
</svg>
