<svg width="210" height="151" viewBox="0 0 210 151" fill="none" xmlns="http://www.w3.org/2000/svg">
<path fill-rule="evenodd" clip-rule="evenodd" d="M0 150.115L30.6449 150.097C35.0077 142.057 38.8522 136.024 46.9373 130.576C69.4027 115.439 86.8194 126.345 95.6519 119.323C99.2103 116.493 101.184 113.541 100.894 107.762C100.66 103.053 97.9823 99.4478 94.5476 97.3319C89.9864 94.5217 78.1659 95.4561 71.525 95.4679L55.1343 95.5036C55.2968 93.7919 58.3879 87.3318 59.4196 84.9702C69.4917 61.9152 70.8025 42.3641 62.4721 18.6347L60.8264 14.9414C59.7927 15.8968 0.000369326 150.114 0 150.115Z" fill="white"/>
<path fill-rule="evenodd" clip-rule="evenodd" d="M154.058 150.266L165.472 150.187L147.183 109.34C141.167 95.9598 134.779 81.699 128.827 68.464C122.682 54.7957 116.414 41.4163 110.433 27.5902C107.65 21.1586 104.262 12.3322 99.7891 8.43472C89.1082 -0.876257 81.2338 0.0955377 68.8257 0.123334L122.514 122.862C124.148 126.504 125.334 129.457 126.933 132.957C131.743 143.494 141.931 150.254 154.058 150.266Z" fill="white"/>
<path fill-rule="evenodd" clip-rule="evenodd" d="M153.293 83.082C154.644 82.0629 180.109 44.5099 181.895 41.9741C189.562 31.0796 199.052 16.5339 206.852 5.8021C208.031 4.18244 209.777 2.23138 209.825 0.157353C200.91 -0.956987 186.538 4.09478 180.266 7.51084C162.851 17 152.724 31.573 148.846 50.9331C147.439 57.9597 148.264 69.1274 150.495 76.1954L152.255 81.3078C152.266 81.3334 152.591 82.0318 152.619 82.08L153.293 83.082Z" fill="white"/>
</svg>
