<svg width="91" height="59" viewBox="0 0 91 59" fill="none" xmlns="http://www.w3.org/2000/svg">
<path fill-rule="evenodd" clip-rule="evenodd" d="M0 58.7771L13.2812 58.7699C15.1721 55.6219 16.8382 53.2593 20.3422 51.1261C30.0785 45.199 37.6271 49.4696 41.4548 46.72C42.9973 45.6119 43.8526 44.456 43.7272 42.193C43.6249 40.349 42.4648 38.9374 40.9764 38.109C38.999 37.0086 33.8764 37.3744 30.9984 37.379L23.8948 37.393C23.9652 36.7228 25.3048 34.1932 25.7519 33.2685C30.1171 24.2409 30.6852 16.5854 27.0749 7.29383L26.3617 5.84766C25.9136 6.22176 0.000154444 58.7766 0 58.777V58.7771Z" fill="#1AABBE"/>
<path fill-rule="evenodd" clip-rule="evenodd" d="M66.769 58.842L71.716 58.8111L63.7892 42.8169C61.1822 37.5775 58.4138 31.9935 55.8345 26.8112C53.1707 21.4592 50.4547 16.2202 47.8623 10.8064C46.6564 8.28801 45.1877 4.83192 43.2497 3.30578C38.6202 -0.340077 35.2077 0.0404449 29.8301 0.0513289L53.0981 48.1115C53.8064 49.5375 54.3202 50.6937 55.0129 52.0646C57.0979 56.1903 61.5138 58.8375 66.769 58.8421V58.842Z" fill="#203F7D"/>
<path fill-rule="evenodd" clip-rule="evenodd" d="M66.4377 32.5321C67.0237 32.133 78.0597 17.4286 78.8333 16.4356C82.1568 12.1696 86.2695 6.4741 89.6501 2.2719C90.1603 1.6377 90.9175 0.873728 90.9382 0.0616138C87.0746 -0.374723 80.8459 1.60337 78.1282 2.94099C70.58 6.65662 66.1915 12.3629 64.5107 19.9436C63.9006 22.695 64.2585 27.0679 65.2252 29.8355L65.9881 31.8373C65.9927 31.8474 66.1334 32.1209 66.1452 32.1397L66.4377 32.5322V32.5321Z" fill="#1AABBE"/>
</svg>
