<svg width="54" height="73" viewBox="0 0 54 73" fill="none" xmlns="http://www.w3.org/2000/svg">
<path fill-rule="evenodd" clip-rule="evenodd" d="M17.3338 9.10999C17.3341 8.65686 17.5142 8.22238 17.8346 7.90197C18.155 7.58156 18.5895 7.40142 19.0427 7.40112H34.8855C35.3387 7.40112 35.7733 7.58116 36.0938 7.90164C36.4143 8.22211 36.5943 8.65677 36.5943 9.10999C36.5943 9.56321 36.4143 9.99787 36.0938 10.3183C35.7733 10.6388 35.3387 10.8189 34.8855 10.8189H19.0427C18.5894 10.8189 18.1548 10.6388 17.8343 10.3183C17.5138 9.99787 17.3338 9.56321 17.3338 9.10999ZM5.2196 3.41774C4.74187 3.41808 4.2838 3.60799 3.94597 3.94577C3.60814 4.28355 3.41816 4.74159 3.41774 5.21932V60.7491H50.5084V5.21932C50.5083 4.7416 50.3186 4.28344 49.9808 3.9456C49.6431 3.60776 49.1849 3.41789 48.7072 3.41774H5.2196ZM48.7072 0H5.2196C3.83579 0.00150763 2.50908 0.551874 1.53055 1.53035C0.552021 2.50883 0.00158314 3.83551 0 5.21932V67.6928C0.00169611 69.0765 0.552179 70.4031 1.53069 71.3815C2.50921 72.3599 3.83585 72.9103 5.2196 72.9118H48.7072C50.091 72.9102 51.4176 72.3598 52.396 71.3812C53.3744 70.4027 53.9247 69.076 53.9261 67.6922V5.21932C53.9247 3.83558 53.3744 2.50893 52.396 1.53044C51.4176 0.551946 50.091 0.00154559 48.7072 0Z" fill="url(#paint0_linear_335_91)"/>
<defs>
<linearGradient id="paint0_linear_335_91" x1="0" y1="36.4559" x2="53.9261" y2="36.4559" gradientUnits="userSpaceOnUse">
<stop stop-color="#1AABBE"/>
<stop offset="1" stop-color="#203F7D"/>
</linearGradient>
</defs>
</svg>
