<svg width="83" height="70" viewBox="0 0 83 70" fill="none" xmlns="http://www.w3.org/2000/svg">
<path fill-rule="evenodd" clip-rule="evenodd" d="M44.4811 65.6887H37.9364V59.4995H44.4811V65.6887ZM5.95594 3.86331H76.4614C77.0162 3.86391 77.5481 4.08457 77.9405 4.47689C78.3328 4.8692 78.5534 5.40112 78.554 5.95594V47.4233H3.86331V5.9561C3.86391 5.40128 4.08457 4.86936 4.47689 4.47705C4.8692 4.08473 5.40112 3.86391 5.95594 3.86331ZM76.4614 0H5.95594C4.3769 0.00187443 2.86307 0.629976 1.74653 1.74653C0.629976 2.86307 0.00187443 4.3769 0 5.95594L0 53.5434C0.00187443 55.1225 0.629976 56.6363 1.74653 57.7528C2.86307 58.8694 4.3769 59.4975 5.95594 59.4994H34.0728V65.6886H30.422C29.9097 65.6886 29.4183 65.8921 29.0561 66.2543C28.6938 66.6166 28.4903 67.1079 28.4903 67.6202C28.4903 68.1325 28.6938 68.6238 29.0561 68.9861C29.4183 69.3484 29.9097 69.5519 30.422 69.5519H51.9952C52.5075 69.5519 52.9988 69.3484 53.3611 68.9861C53.7233 68.6238 53.9269 68.1325 53.9269 67.6202C53.9269 67.1079 53.7233 66.6166 53.3611 66.2543C52.9988 65.8921 52.5075 65.6886 51.9952 65.6886H48.3445V59.4995H76.4614C78.0404 59.4977 79.5543 58.8696 80.6708 57.753C81.7874 56.6365 82.4155 55.1226 82.4173 53.5436V5.9561C82.4155 4.37703 81.7874 2.86317 80.6709 1.74658C79.5543 0.629997 78.0405 0.00187452 76.4614 0Z" fill="url(#paint0_linear_335_87)"/>
<defs>
<linearGradient id="paint0_linear_335_87" x1="0.000160971" y1="34.7761" x2="82.4173" y2="34.7761" gradientUnits="userSpaceOnUse">
<stop stop-color="#1AABBE"/>
<stop offset="1" stop-color="#203F7D"/>
</linearGradient>
</defs>
</svg>
