<svg width="119" height="105" viewBox="0 0 119 105" fill="none" xmlns="http://www.w3.org/2000/svg">
<path fill-rule="evenodd" clip-rule="evenodd" d="M27.9624 61.1521L40.4461 61.1446C42.2234 57.8695 43.7896 55.4117 47.0832 53.1923C56.2349 47.0261 63.3299 51.469 66.9279 48.6084C68.3775 47.4556 69.1817 46.2531 69.0636 43.8987C68.9681 41.9802 67.8773 40.5118 66.4781 39.6498C64.62 38.505 59.8047 38.8857 57.0994 38.8905L50.4224 38.905C50.4886 38.2077 51.7478 35.5761 52.1681 34.614C56.2711 25.2222 56.8051 17.2577 53.4116 7.59108L52.7411 6.08655C52.32 6.47575 27.9626 61.1516 27.9624 61.1521Z" fill="#1AABBE"/>
<path fill-rule="evenodd" clip-rule="evenodd" d="M90.7214 61.216L95.3711 61.1839L87.9207 44.5442C85.4699 39.0934 82.8678 33.284 80.4433 27.8925C77.9398 22.3244 75.3866 16.8741 72.95 11.2418C71.8164 8.62171 70.436 5.02613 68.614 3.4384C64.2629 -0.354611 61.0551 0.0412687 56.0005 0.052592L77.8713 50.0524C78.5371 51.5361 79.02 52.739 79.6715 54.1651C81.6311 58.4574 85.7813 61.2112 90.7214 61.216Z" fill="#203F7D"/>
<path fill-rule="evenodd" clip-rule="evenodd" d="M90.407 33.845C90.9576 33.4298 101.331 18.1319 102.059 17.0989C105.182 12.6608 109.048 6.73538 112.226 2.36359C112.705 1.70379 113.417 0.908993 113.437 0.0641005C109.805 -0.389846 103.95 1.66808 101.395 3.05968C94.3007 6.92527 90.1753 12.8618 88.5956 20.7485C88.0223 23.6109 88.3586 28.1603 89.2673 31.0396L89.9842 33.1222C89.9887 33.1327 90.1211 33.4172 90.1324 33.4368L90.407 33.845Z" fill="#1AABBE"/>
<path d="M8.54102 90.2754L14.2281 77.6375H16.539L22.2442 90.2754H19.7888L14.8961 78.8832H15.8349L10.9603 90.2754H8.54102ZM11.1589 87.3506L11.7908 85.5091H18.6153L19.2472 87.3506H11.1589ZM23.965 90.4559C23.7604 90.4559 23.5558 90.4379 23.3512 90.4018C23.1466 90.3657 22.9239 90.3236 22.6832 90.2754L22.8457 88.2353C23.0142 88.2834 23.1947 88.3075 23.3873 88.3075C23.8928 88.3075 24.296 88.1029 24.5969 87.6937C24.8978 87.2724 25.1145 86.6585 25.2469 85.8521C25.3793 85.0457 25.4696 84.0527 25.5177 82.8732L25.6982 77.6375H34.9962V90.2754H32.6852V79.0457L33.2269 79.6234H27.2148L27.7203 79.0276L27.5939 82.7829C27.5578 84.0347 27.4736 85.136 27.3412 86.0868C27.2088 87.0377 27.0042 87.8381 26.7273 88.488C26.4625 89.126 26.1075 89.6134 25.6621 89.9504C25.2168 90.2874 24.6511 90.4559 23.965 90.4559ZM41.2055 90.2754V79.0457L41.7652 79.6234H37.0349V77.6375H47.723V79.6234H42.9928L43.5345 79.0457V90.2754H41.2055ZM55.5787 81.9163C57.0833 81.9163 58.2447 82.2533 59.0632 82.9273C59.8817 83.6014 60.2909 84.6124 60.2909 85.9605C60.2909 87.3807 59.8395 88.4579 58.9368 89.1922C58.0462 89.9143 56.8004 90.2754 55.1996 90.2754H49.7653V77.6375H52.0762V81.9163H55.5787ZM55.0913 88.47C55.994 88.47 56.6921 88.2594 57.1856 87.8381C57.6911 87.4168 57.9438 86.803 57.9438 85.9966C57.9438 85.2022 57.6971 84.6244 57.2036 84.2634C56.7101 83.8902 56.006 83.7037 55.0913 83.7037H52.0762V88.47H55.0913ZM62.1141 90.2754V77.6375H64.425V90.2754H62.1141ZM76.8606 77.6375H79.2077V90.2754H76.8606V77.6375ZM70.325 90.2754H67.9779V77.6375H70.325V90.2754ZM77.0412 84.8591H70.1264V82.8551H77.0412V84.8591ZM87.9226 88.2894C88.5846 88.5181 89.1683 88.5783 89.6738 88.47C90.1794 88.3617 90.6307 87.9946 91.0279 87.3687L91.6418 86.4118L91.8764 86.159L96.2817 77.6375H98.5926L93.1041 87.8381C92.6588 88.6927 92.1292 89.3426 91.5154 89.7879C90.9015 90.2333 90.2395 90.48 89.5294 90.5282C88.8313 90.5883 88.1031 90.4559 87.3448 90.131L87.9226 88.2894ZM91.8223 88.1811L86.1894 77.6375H88.6989L93.1041 86.3757L91.8223 88.1811ZM107.379 90.2754V86.2313L107.957 86.7548H104.256C103.196 86.7548 102.282 86.5803 101.511 86.2313C100.753 85.8702 100.169 85.3586 99.7601 84.6967C99.3509 84.0226 99.1463 83.2162 99.1463 82.2774C99.1463 81.3025 99.3629 80.472 99.7962 79.7859C100.23 79.0878 100.843 78.5582 101.638 78.1971C102.432 77.824 103.365 77.6375 104.436 77.6375H109.69V90.2754H107.379ZM99.1824 90.2754L102.306 85.7619H104.671L101.656 90.2754H99.1824ZM107.379 85.473V78.9735L107.957 79.6234H104.508C103.546 79.6234 102.805 79.8461 102.288 80.2914C101.782 80.7247 101.529 81.3747 101.529 82.2413C101.529 83.0718 101.77 83.7157 102.252 84.1731C102.745 84.6184 103.467 84.8411 104.418 84.8411H107.957L107.379 85.473Z" fill="#1AABBE"/>
<path d="M3.357 103.072C2.877 103.072 2.43 102.991 2.016 102.829C1.608 102.667 1.254 102.442 0.954 102.154C0.654 101.86 0.42 101.518 0.252 101.128C0.084 100.738 0 100.312 0 99.85C0 99.388 0.084 98.962 0.252 98.572C0.42 98.182 0.654 97.843 0.954 97.555C1.254 97.261 1.608 97.033 2.016 96.871C2.424 96.709 2.871 96.628 3.357 96.628C3.837 96.628 4.278 96.709 4.68 96.871C5.088 97.027 5.442 97.252 5.742 97.546C6.048 97.834 6.282 98.173 6.444 98.563C6.612 98.953 6.696 99.382 6.696 99.85C6.696 100.318 6.612 100.747 6.444 101.137C6.282 101.527 6.048 101.869 5.742 102.163C5.442 102.451 5.088 102.676 4.68 102.838C4.278 102.994 3.837 103.072 3.357 103.072ZM3.357 102.271C3.705 102.271 4.026 102.211 4.32 102.091C4.62 101.971 4.878 101.803 5.094 101.587C5.316 101.365 5.487 101.107 5.607 100.813C5.733 100.519 5.796 100.198 5.796 99.85C5.796 99.502 5.733 99.181 5.607 98.887C5.487 98.593 5.316 98.338 5.094 98.122C4.878 97.9 4.62 97.729 4.32 97.609C4.026 97.489 3.705 97.429 3.357 97.429C3.003 97.429 2.676 97.489 2.376 97.609C2.082 97.729 1.824 97.9 1.602 98.122C1.38 98.338 1.206 98.593 1.08 98.887C0.96 99.181 0.9 99.502 0.9 99.85C0.9 100.198 0.96 100.519 1.08 100.813C1.206 101.107 1.38 101.365 1.602 101.587C1.824 101.803 2.082 101.971 2.376 102.091C2.676 102.211 3.003 102.271 3.357 102.271Z" fill="#203F7D"/>
<path d="M8.15091 103V96.7H12.9029V97.465H9.04191V99.265H11.0039C11.7539 99.265 12.3239 99.421 12.7139 99.733C13.1039 100.045 13.2989 100.498 13.2989 101.092C13.2989 101.704 13.0859 102.175 12.6599 102.505C12.2399 102.835 11.6369 103 10.8509 103H8.15091ZM9.04191 102.289H10.8149C11.3369 102.289 11.7299 102.19 11.9939 101.992C12.2639 101.794 12.3989 101.5 12.3989 101.11C12.3989 100.354 11.8709 99.976 10.8149 99.976H9.04191V102.289Z" fill="#203F7D"/>
<path d="M18.4509 102.217L18.2439 102.451V96.7H19.1259V102.451L18.9009 102.217H21.9699L21.7449 102.451V96.7H22.6269V103H14.7339V96.7H15.6249V102.451L15.3999 102.217H18.4509ZM22.7439 104.377V102.766L22.9689 103H21.7269V102.217H23.5719V104.377H22.7439Z" fill="#203F7D"/>
<path d="M25.6428 99.418H28.8828V100.183H25.6428V99.418ZM25.7238 102.217H29.3958V103H24.8238V96.7H29.2698V97.483H25.7238V102.217Z" fill="#203F7D"/>
<path d="M33.6173 103.072C33.1373 103.072 32.6933 102.994 32.2853 102.838C31.8833 102.676 31.5323 102.451 31.2323 102.163C30.9383 101.869 30.7073 101.527 30.5393 101.137C30.3713 100.747 30.2873 100.318 30.2873 99.85C30.2873 99.382 30.3713 98.953 30.5393 98.563C30.7073 98.173 30.9413 97.834 31.2413 97.546C31.5413 97.252 31.8923 97.027 32.2943 96.871C32.7023 96.709 33.1463 96.628 33.6263 96.628C34.1123 96.628 34.5593 96.712 34.9673 96.88C35.3813 97.042 35.7323 97.285 36.0203 97.609L35.4353 98.176C35.1953 97.924 34.9253 97.738 34.6253 97.618C34.3253 97.492 34.0043 97.429 33.6623 97.429C33.3083 97.429 32.9783 97.489 32.6723 97.609C32.3723 97.729 32.1113 97.897 31.8893 98.113C31.6673 98.329 31.4933 98.587 31.3673 98.887C31.2473 99.181 31.1873 99.502 31.1873 99.85C31.1873 100.198 31.2473 100.522 31.3673 100.822C31.4933 101.116 31.6673 101.371 31.8893 101.587C32.1113 101.803 32.3723 101.971 32.6723 102.091C32.9783 102.211 33.3083 102.271 33.6623 102.271C34.0043 102.271 34.3253 102.211 34.6253 102.091C34.9253 101.965 35.1953 101.773 35.4353 101.515L36.0203 102.082C35.7323 102.406 35.3813 102.652 34.9673 102.82C34.5593 102.988 34.1093 103.072 33.6173 103.072Z" fill="#203F7D"/>
<path d="M38.477 103V97.249L38.702 97.483H36.326V96.7H41.519V97.483H39.143L39.359 97.249V103H38.477Z" fill="#203F7D"/>
<path d="M42.6128 103V96.7H45.3218C46.0058 96.7 46.5428 96.838 46.9328 97.114C47.3228 97.39 47.5178 97.792 47.5178 98.32C47.5178 98.836 47.3318 99.232 46.9598 99.508C46.5878 99.778 46.0988 99.913 45.4928 99.913L45.6548 99.643C46.3568 99.643 46.8938 99.784 47.2658 100.066C47.6438 100.342 47.8328 100.747 47.8328 101.281C47.8328 101.821 47.6348 102.244 47.2388 102.55C46.8488 102.85 46.2668 103 45.4928 103H42.6128ZM43.5038 102.289H45.4748C45.9548 102.289 46.3148 102.202 46.5548 102.028C46.8008 101.848 46.9238 101.575 46.9238 101.209C46.9238 100.843 46.8008 100.576 46.5548 100.408C46.3148 100.24 45.9548 100.156 45.4748 100.156H43.5038V102.289ZM43.5038 99.472H45.2588C45.6968 99.472 46.0298 99.385 46.2578 99.211C46.4918 99.037 46.6088 98.782 46.6088 98.446C46.6088 98.104 46.4918 97.846 46.2578 97.672C46.0298 97.498 45.6968 97.411 45.2588 97.411H43.5038V99.472Z" fill="#203F7D"/>
<path d="M50.1555 99.418H53.3955V100.183H50.1555V99.418ZM50.2365 102.217H53.9085V103H49.3365V96.7H53.7825V97.483H50.2365V102.217Z" fill="#203F7D"/>
<path d="M59.8398 96.7H60.7398V103H59.8398V96.7ZM56.2218 103H55.3218V96.7H56.2218V103ZM59.9208 100.192H56.1318V99.409H59.9208V100.192Z" fill="#203F7D"/>
<path d="M67.2226 96.7H68.1226V103H67.2226V96.7ZM63.6046 103H62.7046V96.7H63.6046V103ZM67.3036 100.192H63.5146V99.409H67.3036V100.192Z" fill="#203F7D"/>
<path d="M72.8504 98.896C73.5944 98.896 74.1674 99.064 74.5694 99.4C74.9714 99.73 75.1724 100.225 75.1724 100.885C75.1724 101.581 74.9534 102.109 74.5154 102.469C74.0834 102.823 73.4744 103 72.6884 103H70.0874V96.7H70.9784V98.896H72.8504ZM72.6524 102.289C73.1744 102.289 73.5734 102.172 73.8494 101.938C74.1314 101.704 74.2724 101.359 74.2724 100.903C74.2724 100.459 74.1344 100.132 73.8584 99.922C73.5824 99.712 73.1804 99.607 72.6524 99.607H70.9784V102.289H72.6524ZM76.1714 103V96.7H77.0624V103H76.1714Z" fill="#203F7D"/>
<path d="M79.0259 103V96.7H79.9169V101.56L83.6429 96.7H84.4709V103H83.5889V98.149L79.8539 103H79.0259ZM81.7349 96.259C81.2429 96.259 80.8619 96.151 80.5919 95.935C80.3279 95.719 80.1929 95.416 80.1869 95.026H80.8259C80.8319 95.26 80.9159 95.443 81.0779 95.575C81.2399 95.701 81.4589 95.764 81.7349 95.764C82.0049 95.764 82.2209 95.701 82.3829 95.575C82.5509 95.443 82.6379 95.26 82.6439 95.026H83.2739C83.2679 95.416 83.1299 95.719 82.8599 95.935C82.5959 96.151 82.2209 96.259 81.7349 96.259Z" fill="#203F7D"/>
<path d="M91.9301 102.577C91.1621 102.577 90.5051 102.472 89.9591 102.262C89.4131 102.046 88.9961 101.734 88.7081 101.326C88.4201 100.918 88.2761 100.423 88.2761 99.841C88.2761 99.259 88.4201 98.764 88.7081 98.356C88.9961 97.948 89.4131 97.636 89.9591 97.42C90.5051 97.204 91.1621 97.096 91.9301 97.096C91.9421 97.096 91.9631 97.096 91.9931 97.096C92.0291 97.096 92.0621 97.096 92.0921 97.096C92.1281 97.096 92.1491 97.096 92.1551 97.096C92.9231 97.096 93.5771 97.204 94.1171 97.42C94.6631 97.636 95.0801 97.948 95.3681 98.356C95.6561 98.764 95.8001 99.259 95.8001 99.841C95.8001 100.417 95.6561 100.912 95.3681 101.326C95.0861 101.734 94.6751 102.046 94.1351 102.262C93.6011 102.472 92.9531 102.577 92.1911 102.577C92.1791 102.577 92.1521 102.577 92.1101 102.577C92.0741 102.577 92.0381 102.577 92.0021 102.577C91.9661 102.577 91.9421 102.577 91.9301 102.577ZM92.0291 101.875C92.0411 101.875 92.0561 101.875 92.0741 101.875C92.0921 101.875 92.1011 101.875 92.1011 101.875C92.7131 101.869 93.2291 101.791 93.6491 101.641C94.0691 101.485 94.3871 101.257 94.6031 100.957C94.8251 100.651 94.9361 100.276 94.9361 99.832C94.9361 99.394 94.8251 99.025 94.6031 98.725C94.3811 98.425 94.0601 98.197 93.6401 98.041C93.2261 97.885 92.7191 97.807 92.1191 97.807C92.1131 97.807 92.0981 97.807 92.0741 97.807C92.0561 97.807 92.0411 97.807 92.0291 97.807C91.4111 97.807 90.8861 97.885 90.4541 98.041C90.0281 98.191 89.7041 98.416 89.4821 98.716C89.2601 99.016 89.1491 99.391 89.1491 99.841C89.1491 100.291 89.2631 100.666 89.4911 100.966C89.7191 101.266 90.0461 101.494 90.4721 101.65C90.9041 101.8 91.4231 101.875 92.0291 101.875ZM91.6241 103.234V96.466H92.4611V103.234H91.6241Z" fill="#203F7D"/>
<path d="M100.019 103.072C99.5391 103.072 99.0921 102.991 98.6781 102.829C98.2701 102.667 97.9161 102.442 97.6161 102.154C97.3161 101.86 97.0821 101.518 96.9141 101.128C96.7461 100.738 96.6621 100.312 96.6621 99.85C96.6621 99.388 96.7461 98.962 96.9141 98.572C97.0821 98.182 97.3161 97.843 97.6161 97.555C97.9161 97.261 98.2701 97.033 98.6781 96.871C99.0861 96.709 99.5331 96.628 100.019 96.628C100.499 96.628 100.94 96.709 101.342 96.871C101.75 97.027 102.104 97.252 102.404 97.546C102.71 97.834 102.944 98.173 103.106 98.563C103.274 98.953 103.358 99.382 103.358 99.85C103.358 100.318 103.274 100.747 103.106 101.137C102.944 101.527 102.71 101.869 102.404 102.163C102.104 102.451 101.75 102.676 101.342 102.838C100.94 102.994 100.499 103.072 100.019 103.072ZM100.019 102.271C100.367 102.271 100.688 102.211 100.982 102.091C101.282 101.971 101.54 101.803 101.756 101.587C101.978 101.365 102.149 101.107 102.269 100.813C102.395 100.519 102.458 100.198 102.458 99.85C102.458 99.502 102.395 99.181 102.269 98.887C102.149 98.593 101.978 98.338 101.756 98.122C101.54 97.9 101.282 97.729 100.982 97.609C100.688 97.489 100.367 97.429 100.019 97.429C99.6651 97.429 99.3381 97.489 99.0381 97.609C98.7441 97.729 98.4861 97.9 98.2641 98.122C98.0421 98.338 97.8681 98.593 97.7421 98.887C97.6221 99.181 97.5621 99.502 97.5621 99.85C97.5621 100.198 97.6221 100.519 97.7421 100.813C97.8681 101.107 98.0421 101.365 98.2641 101.587C98.4861 101.803 98.7441 101.971 99.0381 102.091C99.3381 102.211 99.6651 102.271 100.019 102.271Z" fill="#203F7D"/>
<path d="M109.331 96.7H110.231V103H109.331V96.7ZM105.713 103H104.813V96.7H105.713V103ZM109.412 100.192H105.623V99.409H109.412V100.192Z" fill="#203F7D"/>
<path d="M116.302 102.577V97.483H113.539L113.494 98.806C113.476 99.25 113.446 99.676 113.404 100.084C113.368 100.492 113.314 100.861 113.242 101.191C113.17 101.515 113.068 101.782 112.936 101.992C112.81 102.202 112.648 102.331 112.45 102.379L111.478 102.217C111.712 102.235 111.904 102.157 112.054 101.983C112.21 101.803 112.33 101.554 112.414 101.236C112.504 100.912 112.57 100.537 112.612 100.111C112.654 99.679 112.684 99.217 112.702 98.725L112.765 96.7H117.193V102.577H116.302ZM111.253 104.377L111.262 102.217H118.12V104.377H117.283V103H112.099L112.09 104.377H111.253Z" fill="#203F7D"/>
</svg>
