<svg width="62" height="61" viewBox="0 0 62 61" fill="none" xmlns="http://www.w3.org/2000/svg">
<path d="M5.55469 47.7869C6.33565 48.8975 7.19039 49.9543 8.11313 50.9502L10.9113 48.3592C10.1045 47.4889 9.35704 46.5654 8.67386 45.5951L5.55469 47.7869Z" fill="white"/>
<path d="M3.81199 30.2404C3.82189 23.7785 6.17112 17.5387 10.4253 12.6747C14.6795 7.81067 20.551 4.65148 26.954 3.78121L26.4544 0C21.6 0.652853 16.9741 2.46437 12.9673 5.28153C8.96046 8.0987 5.69047 11.8388 3.4335 16.1858C1.17653 20.5329 -0.00112597 25.3593 8.07804e-07 30.2574C0.00112758 35.1554 1.181 39.9813 3.43997 44.3273L6.82211 42.5647C4.8322 38.7622 3.79902 34.5321 3.81199 30.2404Z" fill="white"/>
<path d="M11.0615 53.748C12.1066 54.6127 13.2072 55.4079 14.3563 56.1286L16.3803 52.8857C15.373 52.2543 14.4087 51.5567 13.4939 50.7975L11.0615 53.748Z" fill="white"/>
<path d="M43.1293 2.44785C40.416 1.2194 37.5375 0.394712 34.5854 0L34.0858 3.78276C37.8839 4.29613 41.527 5.6211 44.7675 7.66761C48.008 9.71413 50.77 12.4342 52.8658 15.6431C54.9616 18.852 56.3421 22.4744 56.9134 26.2642C57.4848 30.054 57.2336 33.9224 56.177 37.6065C55.1204 41.2906 53.2831 44.7042 50.79 47.6151C48.2969 50.526 45.2063 52.8661 41.7284 54.4765C38.2505 56.0868 34.4666 56.9295 30.634 56.9475C26.8014 56.9654 23.0099 56.1581 19.517 54.5805L17.9385 58.0546C25.3126 61.3948 33.7116 61.6689 41.2878 58.8165C45.0391 57.4041 48.4755 55.2667 51.4008 52.5262C54.3261 49.7858 56.683 46.496 58.3369 42.8447C59.9908 39.1934 60.9093 35.2521 61.04 31.2458C61.1707 27.2396 60.5111 23.2468 59.0987 19.4954C57.6863 15.7441 55.5489 12.3077 52.8085 9.38238C50.068 6.45708 46.7782 4.1002 43.127 2.4463L43.1293 2.44785Z" fill="white"/>
<path d="M30.5862 52.8949C42.9712 52.8949 53.0113 42.8549 53.0113 30.4699C53.0113 18.0848 42.9712 8.04478 30.5862 8.04478C18.2012 8.04478 8.16113 18.0848 8.16113 30.4699C8.16113 42.8549 18.2012 52.8949 30.5862 52.8949Z" stroke="white" stroke-width="3"/>
<path d="M38.8443 29.8855L26.1503 23.9743C26.0263 23.918 25.8915 23.8893 25.7553 23.8903C25.6191 23.8912 25.4847 23.9217 25.3614 23.9797C25.2487 24.0272 25.1519 24.1059 25.0822 24.2064C25.0125 24.3069 24.9728 24.4252 24.9678 24.5474V36.369C24.9728 36.4912 25.0125 36.6094 25.0822 36.71C25.1519 36.8105 25.2487 36.8891 25.3614 36.9367C25.4864 36.9957 25.623 37.0261 25.7613 37.0256C25.8948 37.0258 26.0267 36.9971 26.148 36.9413L38.8443 31.0309C38.9626 30.9888 39.0649 30.9112 39.1372 30.8086C39.2096 30.7061 39.2484 30.5837 39.2484 30.4582C39.2484 30.3327 39.2096 30.2103 39.1372 30.1077C39.0649 30.0052 38.9626 29.9275 38.8443 29.8855Z" fill="white"/>
</svg>
