<svg width="50" height="50" viewBox="0 0 50 50" fill="none" xmlns="http://www.w3.org/2000/svg">
<path d="M50 25C50 38.8071 38.8071 50 25 50C11.1929 50 9.60099e-06 38.8071 6.18507e-06 25C2.76915e-06 11.1929 11.1929 -1.38308e-06 25 -3.08919e-06C38.8071 -4.7953e-06 50 11.1929 50 25Z" fill="url(#paint0_linear_335_338)"/>
<path d="M27.4375 38.4282C27.6537 38.6444 27.9104 38.8159 28.1929 38.9329C28.4754 39.0499 28.7781 39.1101 29.0839 39.1101C29.3896 39.1101 29.6924 39.0499 29.9749 38.9329C30.2573 38.8159 30.514 38.6444 30.7302 38.4282C30.9464 38.212 31.1179 37.9553 31.2349 37.6728C31.3519 37.3904 31.4121 37.0876 31.4121 36.7818C31.4121 36.4761 31.3519 36.1733 31.2349 35.8909C31.1179 35.6084 30.9464 35.3517 30.7302 35.1355L21.0413 25.4466L30.7302 15.7577C31.0542 15.4315 31.2747 15.017 31.3642 14.5661C31.4537 14.1152 31.4082 13.6479 31.2334 13.2227C31.0585 12.7975 30.7621 12.4334 30.3812 12.1759C30.0004 11.9184 29.552 11.779 29.0923 11.7752C28.787 11.7741 28.4845 11.8347 28.2031 11.9533C27.9217 12.0718 27.6671 12.2458 27.4545 12.465L16.1277 23.7918C15.9106 24.0075 15.7383 24.264 15.6207 24.5465C15.5031 24.8291 15.4426 25.1321 15.4426 25.4381C15.4426 25.7442 15.5031 26.0472 15.6207 26.3297C15.7383 26.6123 15.9106 26.8688 16.1277 27.0845L27.4375 38.4282Z" fill="white"/>
<defs>
<linearGradient id="paint0_linear_335_338" x1="4.77941" y1="10.2941" x2="45.2206" y2="38.6029" gradientUnits="userSpaceOnUse">
<stop stop-color="#1AA8BC"/>
<stop offset="0.46" stop-color="#1D749D"/>
<stop offset="1" stop-color="#20407E" stop-opacity="0"/>
</linearGradient>
</defs>
</svg>
