<svg width="50" height="50" viewBox="0 0 50 50" fill="none" xmlns="http://www.w3.org/2000/svg">
<path d="M-2.28919e-06 25C-7.76707e-06 11.1929 11.1929 1.20026e-05 25 9.08945e-06C38.8071 6.17629e-06 50 11.1929 50 25C50 38.8071 38.8071 50 25 50C11.1929 50 3.18869e-06 38.8071 -2.28919e-06 25Z" fill="url(#paint0_linear_335_333)"/>
<path d="M22.5625 11.5735C22.3463 11.3573 22.0896 11.1858 21.8071 11.0688C21.5246 10.9518 21.2219 10.8916 20.9161 10.8916C20.6104 10.8916 20.3076 10.9518 20.0251 11.0688C19.7427 11.1858 19.486 11.3573 19.2698 11.5735C19.0536 11.7897 18.8821 12.0464 18.7651 12.3289C18.6481 12.6114 18.5879 12.9141 18.5879 13.2199C18.5879 13.5256 18.6481 13.8284 18.7651 14.1109C18.8821 14.3933 19.0536 14.65 19.2698 14.8662L28.9587 24.5551L19.2698 34.244C18.9458 34.5702 18.7253 34.9847 18.6358 35.4356C18.5463 35.8865 18.5918 36.3538 18.7667 36.779C18.9415 37.2042 19.2379 37.5683 19.6188 37.8258C19.9996 38.0833 20.448 38.2227 20.9077 38.2265C21.213 38.2276 21.5155 38.167 21.7969 38.0485C22.0783 37.9299 22.3329 37.7559 22.5455 37.5367L33.8723 26.2099C34.0894 25.9942 34.2617 25.7377 34.3793 25.4552C34.4969 25.1726 34.5574 24.8696 34.5574 24.5636C34.5574 24.2575 34.4969 23.9545 34.3793 23.672C34.2617 23.3894 34.0894 23.1329 33.8723 22.9172L22.5625 11.5735Z" fill="white"/>
<defs>
<linearGradient id="paint0_linear_335_333" x1="45.2206" y1="39.7059" x2="4.77941" y2="11.3971" gradientUnits="userSpaceOnUse">
<stop stop-color="#1AA8BC"/>
<stop offset="0.46" stop-color="#1D749D"/>
<stop offset="1" stop-color="#20407E" stop-opacity="0"/>
</linearGradient>
</defs>
</svg>
